  0
SECTION
  2
HEADER
  9
$ACADVER
  1
AC1015
  9
$ACADMAINTVER
 70
    13
  9
$DWGCODEPAGE
  3
ANSI_1252
  9
$INSBASE
 10
0.0
 20
0.0
 30
0.0
  9
$EXTMIN
 10
20.13758903201895
 20
-36.93665105277943
 30
-0.000000000000013
  9
$EXTMAX
 10
69.68616380607787
 20
26.16686224076858
 30
0.0000000000000023
  9
$LIMMIN
 10
0.0
 20
0.0
  9
$LIMMAX
 10
12.0
 20
9.0
  9
$ORTHOMODE
 70
     0
  9
$REGENMODE
 70
     1
  9
$FILLMODE
 70
     1
  9
$QTEXTMODE
 70
     0
  9
$MIRRTEXT
 70
     1
  9
$LTSCALE
 40
1.0
  9
$ATTMODE
 70
     1
  9
$TEXTSIZE
 40
0.2
  9
$TRACEWID
 40
0.05
  9
$TEXTSTYLE
  7
Standard
  9
$CLAYER
  8
0
  9
$CELTYPE
  6
ByLayer
  9
$CECOLOR
 62
   256
  9
$CELTSCALE
 40
1.0
  9
$DISPSILH
 70
     0
  9
$DIMSCALE
 40
2.0
  9
$DIMASZ
 40
0.18
  9
$DIMEXO
 40
0.0625
  9
$DIMDLI
 40
0.38
  9
$DIMRND
 40
0.0
  9
$DIMDLE
 40
0.0
  9
$DIMEXE
 40
0.18
  9
$DIMTP
 40
0.0
  9
$DIMTM
 40
0.0
  9
$DIMTXT
 40
0.18
  9
$DIMCEN
 40
0.09
  9
$DIMTSZ
 40
0.0
  9
$DIMTOL
 70
     0
  9
$DIMLIM
 70
     0
  9
$DIMTIH
 70
     1
  9
$DIMTOH
 70
     1
  9
$DIMSE1
 70
     0
  9
$DIMSE2
 70
     0
  9
$DIMTAD
 70
     0
  9
$DIMZIN
 70
     0
  9
$DIMBLK
  1

  9
$DIMASO
 70
     1
  9
$DIMSHO
 70
     1
  9
$DIMPOST
  1

  9
$DIMAPOST
  1

  9
$DIMALT
 70
     0
  9
$DIMALTD
 70
     2
  9
$DIMALTF
 40
25.4
  9
$DIMLFAC
 40
1.0
  9
$DIMTOFL
 70
     0
  9
$DIMTVP
 40
0.0
  9
$DIMTIX
 70
     0
  9
$DIMSOXD
 70
     0
  9
$DIMSAH
 70
     0
  9
$DIMBLK1
  1

  9
$DIMBLK2
  1

  9
$DIMSTYLE
  2
Standard
  9
$DIMCLRD
 70
     0
  9
$DIMCLRE
 70
     0
  9
$DIMCLRT
 70
     0
  9
$DIMTFAC
 40
1.0
  9
$DIMGAP
 40
0.09
  9
$DIMJUST
 70
     0
  9
$DIMSD1
 70
     0
  9
$DIMSD2
 70
     0
  9
$DIMTOLJ
 70
     1
  9
$DIMTZIN
 70
     0
  9
$DIMALTZ
 70
     0
  9
$DIMALTTZ
 70
     0
  9
$DIMUPT
 70
     0
  9
$DIMDEC
 70
     4
  9
$DIMTDEC
 70
     4
  9
$DIMALTU
 70
     2
  9
$DIMALTTD
 70
     2
  9
$DIMTXSTY
  7
Standard
  9
$DIMAUNIT
 70
     0
  9
$DIMADEC
 70
     0
  9
$DIMALTRND
 40
0.0
  9
$DIMAZIN
 70
     0
  9
$DIMDSEP
 70
    46
  9
$DIMATFIT
 70
     3
  9
$DIMFRAC
 70
     0
  9
$DIMLDRBLK
  1

  9
$DIMLUNIT
 70
     2
  9
$DIMLWD
 70
    -2
  9
$DIMLWE
 70
    -2
  9
$DIMTMOVE
 70
     0
  9
$LUNITS
 70
     2
  9
$LUPREC
 70
     4
  9
$SKETCHINC
 40
0.1
  9
$FILLETRAD
 40
0.125
  9
$AUNITS
 70
     0
  9
$AUPREC
 70
     0
  9
$MENU
  1
.
  9
$ELEVATION
 40
0.0
  9
$PELEVATION
 40
0.0
  9
$THICKNESS
 40
0.0
  9
$LIMCHECK
 70
     0
  9
$CHAMFERA
 40
0.5
  9
$CHAMFERB
 40
0.5
  9
$CHAMFERC
 40
1.0
  9
$CHAMFERD
 40
0.0
  9
$SKPOLY
 70
     0
  9
$TDCREATE
 40
2459658.402187870
  9
$TDUCREATE
 40
2459658.735521204
  9
$TDUPDATE
 40
2459986.375432176
  9
$TDUUPDATE
 40
2459986.708765509
  9
$TDINDWG
 40
0.8698041898
  9
$TDUSRTIMER
 40
0.8698041898
  9
$USRTIMER
 70
     1
  9
$ANGBASE
 50
0.0
  9
$ANGDIR
 70
     0
  9
$PDMODE
 70
     0
  9
$PDSIZE
 40
0.0
  9
$PLINEWID
 40
0.0
  9
$SPLFRAME
 70
     0
  9
$SPLINETYPE
 70
     6
  9
$SPLINESEGS
 70
     8
  9
$HANDSEED
  5
253D
  9
$SURFTAB1
 70
     6
  9
$SURFTAB2
 70
     6
  9
$SURFTYPE
 70
     6
  9
$SURFU
 70
     6
  9
$SURFV
 70
     6
  9
$UCSBASE
  2

  9
$UCSNAME
  2

  9
$UCSORG
 10
0.0
 20
0.0
 30
0.0
  9
$UCSXDIR
 10
1.0
 20
0.0
 30
0.0
  9
$UCSYDIR
 10
0.0
 20
1.0
 30
0.0
  9
$UCSORTHOREF
  2

  9
$UCSORTHOVIEW
 70
     0
  9
$UCSORGTOP
 10
0.0
 20
0.0
 30
0.0
  9
$UCSORGBOTTOM
 10
0.0
 20
0.0
 30
0.0
  9
$UCSORGLEFT
 10
0.0
 20
0.0
 30
0.0
  9
$UCSORGRIGHT
 10
0.0
 20
0.0
 30
0.0
  9
$UCSORGFRONT
 10
0.0
 20
0.0
 30
0.0
  9
$UCSORGBACK
 10
0.0
 20
0.0
 30
0.0
  9
$PUCSBASE
  2

  9
$PUCSNAME
  2

  9
$PUCSORG
 10
0.0
 20
0.0
 30
0.0
  9
$PUCSXDIR
 10
1.0
 20
0.0
 30
0.0
  9
$PUCSYDIR
 10
0.0
 20
1.0
 30
0.0
  9
$PUCSORTHOREF
  2

  9
$PUCSORTHOVIEW
 70
     0
  9
$PUCSORGTOP
 10
0.0
 20
0.0
 30
0.0
  9
$PUCSORGBOTTOM
 10
0.0
 20
0.0
 30
0.0
  9
$PUCSORGLEFT
 10
0.0
 20
0.0
 30
0.0
  9
$PUCSORGRIGHT
 10
0.0
 20
0.0
 30
0.0
  9
$PUCSORGFRONT
 10
0.0
 20
0.0
 30
0.0
  9
$PUCSORGBACK
 10
0.0
 20
0.0
 30
0.0
  9
$USERI1
 70
     0
  9
$USERI2
 70
     0
  9
$USERI3
 70
     0
  9
$USERI4
 70
     0
  9
$USERI5
 70
     0
  9
$USERR1
 40
0.0
  9
$USERR2
 40
0.0
  9
$USERR3
 40
0.0
  9
$USERR4
 40
0.0
  9
$USERR5
 40
0.0
  9
$WORLDVIEW
 70
     1
  9
$SHADEDGE
 70
     3
  9
$SHADEDIF
 70
    70
  9
$TILEMODE
 70
     1
  9
$MAXACTVP
 70
    64
  9
$PINSBASE
 10
0.0
 20
0.0
 30
0.0
  9
$PLIMCHECK
 70
     0
  9
$PEXTMIN
 10
0.0
 20
0.0
 30
0.0
  9
$PEXTMAX
 10
0.0
 20
0.0
 30
0.0
  9
$PLIMMIN
 10
0.0
 20
0.0
  9
$PLIMMAX
 10
12.0
 20
9.0
  9
$UNITMODE
 70
     0
  9
$VISRETAIN
 70
     1
  9
$PLINEGEN
 70
     0
  9
$PSLTSCALE
 70
     1
  9
$TREEDEPTH
 70
  3020
  9
$CMLSTYLE
  2
Standard
  9
$CMLJUST
 70
     0
  9
$CMLSCALE
 40
1.0
  9
$PROXYGRAPHICS
 70
     1
  9
$MEASUREMENT
 70
     0
  9
$CELWEIGHT
370
    -1
  9
$ENDCAPS
280
     0
  9
$JOINSTYLE
280
     0
  9
$LWDISPLAY
290
     0
  9
$INSUNITS
 70
     1
  9
$HYPERLINKBASE
  1

  9
$STYLESHEET
  1

  9
$XEDIT
290
     1
  9
$CEPSNTYPE
380
     0
  9
$PSTYLEMODE
290
     1
  9
$FINGERPRINTGUID
  2
{FDEAD576-A652-11D2-9A35-0060089B3A3F}
  9
$VERSIONGUID
  2
{15713E28-672C-4ED3-A5F7-5374096E89B6}
  9
$EXTNAMES
290
     1
  9
$PSVPSCALE
 40
0.0
  9
$OLESTARTUP
290
     0
  0
ENDSEC
  0
SECTION
  2
CLASSES
  0
CLASS
  1
ACDBDICTIONARYWDFLT
  2
AcDbDictionaryWithDefault
  3
AutoCAD 2000
 90
        0
280
     0
281
     0
  0
CLASS
  1
ACDBPLACEHOLDER
  2
AcDbPlaceHolder
  3
AutoCAD 2000
 90
        0
280
     0
281
     0
  0
CLASS
  1
LAYOUT
  2
AcDbLayout
  3
AutoCAD 2000
 90
        0
280
     0
281
     0
  0
CLASS
  1
DICTIONARYVAR
  2
AcDbDictionaryVar
  3
AutoCAD 2000
 90
        0
280
     0
281
     0
  0
CLASS
  1
DIMASSOC
  2
AcDbDimAssoc
  3
"AcDbDimAssoc|Product Desc:     AcDim ARX App For Dimension|Company:          Autodesk, Inc.|WEB Address:      www.autodesk.com"
 90
        0
280
     0
281
     0
  0
CLASS
  1
SORTENTSTABLE
  2
AcDbSortentsTable
  3
AutoCAD 2000
 90
        0
280
     0
281
     0
  0
ENDSEC
  0
SECTION
  2
TABLES
  0
TABLE
  2
VPORT
  5
8
330
0
100
AcDbSymbolTable
 70
    16
  0
VPORT
  5
253C
330
8
100
AcDbSymbolTableRecord
100
AcDbViewportTableRecord
  2
*Active
 70
     0
 10
0.0
 20
0.0
 11
1.0
 21
1.0
 12
61.95478694734465
 22
-24.57736070896846
 13
0.0
 23
0.0
 14
0.5
 24
0.5
 15
0.5
 25
0.5
 16
0.0
 26
0.0
 36
1.0
 17
0.0
 27
0.0
 37
0.0
 40
7.760312843389938
 41
2.328703703703703
 42
50.0
 43
0.0
 44
0.0
 50
0.0
 51
0.0
 71
     0
 72
   100
 73
     1
 74
     3
 75
     0
 76
     0
 77
     0
 78
     0
281
     0
 65
     1
110
0.0
120
0.0
130
0.0
111
1.0
121
0.0
131
0.0
112
0.0
122
1.0
132
0.0
 79
     0
146
0.0
  0
ENDTAB
  0
TABLE
  2
LTYPE
  5
5
330
0
100
AcDbSymbolTable
 70
     3
  0
LTYPE
  5
14
330
5
100
AcDbSymbolTableRecord
100
AcDbLinetypeTableRecord
  2
ByBlock
 70
     0
  3

 72
    65
 73
     0
 40
0.0
  0
LTYPE
  5
15
330
5
100
AcDbSymbolTableRecord
100
AcDbLinetypeTableRecord
  2
ByLayer
 70
     0
  3

 72
    65
 73
     0
 40
0.0
  0
LTYPE
  5
16
330
5
100
AcDbSymbolTableRecord
100
AcDbLinetypeTableRecord
  2
Continuous
 70
     0
  3
Solid line
 72
    65
 73
     0
 40
0.0
  0
LTYPE
  5
11E
330
5
100
AcDbSymbolTableRecord
100
AcDbLinetypeTableRecord
  2
CENTER
 70
     0
  3
Center ____ _ ____ _ ____ _ ____ _ ____ _ ____
 72
    65
 73
     4
 40
2.0
 49
1.25
 74
     0
 49
-0.25
 74
     0
 49
0.25
 74
     0
 49
-0.25
 74
     0
  0
LTYPE
  5
11F
330
5
100
AcDbSymbolTableRecord
100
AcDbLinetypeTableRecord
  2
DASHED2
 70
     0
  3
Dashed (.5x) _ _ _ _ _ _ _ _ _ _ _ _ _ _ _ _ _
 72
    65
 73
     2
 40
0.375
 49
0.25
 74
     0
 49
-0.125
 74
     0
  0
ENDTAB
  0
TABLE
  2
LAYER
  5
2
330
0
100
AcDbSymbolTable
 70
     3
  0
LAYER
  5
10
330
2
100
AcDbSymbolTableRecord
100
AcDbLayerTableRecord
  2
0
 70
     0
 62
     7
  6
Continuous
370
    -3
390
F
  0
LAYER
  5
78
330
2
100
AcDbSymbolTableRecord
100
AcDbLayerTableRecord
  2
Defpoints
 70
     0
 62
     7
  6
Continuous
290
     0
370
    -3
390
F
  0
LAYER
  5
1CD3
330
2
100
AcDbSymbolTableRecord
100
AcDbLayerTableRecord
  2
Top Ring
 70
     0
 62
     7
  6
Continuous
370
    -3
390
F
  0
ENDTAB
  0
TABLE
  2
STYLE
  5
3
330
0
100
AcDbSymbolTable
 70
     1
  0
STYLE
  5
11
330
3
100
AcDbSymbolTableRecord
100
AcDbTextStyleTableRecord
  2
Standard
 70
     0
 40
0.0
 41
1.0
 50
0.0
 71
     0
 42
0.2
  3
txt
  4

  0
ENDTAB
  0
TABLE
  2
VIEW
  5
6
330
0
100
AcDbSymbolTable
 70
     0
  0
ENDTAB
  0
TABLE
  2
UCS
  5
7
330
0
100
AcDbSymbolTable
 70
     0
  0
ENDTAB
  0
TABLE
  2
APPID
  5
9
330
0
100
AcDbSymbolTable
 70
     1
  0
APPID
  5
12
330
9
100
AcDbSymbolTableRecord
100
AcDbRegAppTableRecord
  2
ACAD
 70
     0
  0
ENDTAB
  0
TABLE
  2
DIMSTYLE
  5
A
330
0
100
AcDbSymbolTable
 70
     1
100
AcDbDimStyleTable
 71
     1
340
27
  0
DIMSTYLE
105
27
330
A
100
AcDbSymbolTableRecord
100
AcDbDimStyleTableRecord
  2
Standard
 70
     0
340
11
  0
ENDTAB
  0
TABLE
  2
BLOCK_RECORD
  5
1
330
0
100
AcDbSymbolTable
 70
    23
  0
BLOCK_RECORD
  5
1F
102
{ACAD_XDICTIONARY
360
1F2E
102
}
330
1
100
AcDbSymbolTableRecord
100
AcDbBlockTableRecord
  2
*Model_Space
340
22
  0
BLOCK_RECORD
  5
58
330
1
100
AcDbSymbolTableRecord
100
AcDbBlockTableRecord
  2
*Paper_Space
340
59
  0
BLOCK_RECORD
  5
5D
330
1
100
AcDbSymbolTableRecord
100
AcDbBlockTableRecord
  2
*Paper_Space0
340
5E
  0
BLOCK_RECORD
  5
224E
330
1
100
AcDbSymbolTableRecord
100
AcDbBlockTableRecord
  2
*D6
340
0
  0
BLOCK_RECORD
  5
226A
330
1
100
AcDbSymbolTableRecord
100
AcDbBlockTableRecord
  2
*D7
340
0
  0
BLOCK_RECORD
  5
22D7
330
1
100
AcDbSymbolTableRecord
100
AcDbBlockTableRecord
  2
*D9
340
0
  0
BLOCK_RECORD
  5
22FB
330
1
100
AcDbSymbolTableRecord
100
AcDbBlockTableRecord
  2
*D10
340
0
  0
BLOCK_RECORD
  5
2315
330
1
100
AcDbSymbolTableRecord
100
AcDbBlockTableRecord
  2
*D11
340
0
  0
BLOCK_RECORD
  5
2334
330
1
100
AcDbSymbolTableRecord
100
AcDbBlockTableRecord
  2
*D12
340
0
  0
BLOCK_RECORD
  5
2386
330
1
100
AcDbSymbolTableRecord
100
AcDbBlockTableRecord
  2
*D13
340
0
  0
BLOCK_RECORD
  5
23B3
330
1
100
AcDbSymbolTableRecord
100
AcDbBlockTableRecord
  2
*D14
340
0
  0
BLOCK_RECORD
  5
23E9
330
1
100
AcDbSymbolTableRecord
100
AcDbBlockTableRecord
  2
*D15
340
0
  0
BLOCK_RECORD
  5
2403
330
1
100
AcDbSymbolTableRecord
100
AcDbBlockTableRecord
  2
*D16
340
0
  0
BLOCK_RECORD
  5
241F
330
1
100
AcDbSymbolTableRecord
100
AcDbBlockTableRecord
  2
*D17
340
0
  0
BLOCK_RECORD
  5
2439
330
1
100
AcDbSymbolTableRecord
100
AcDbBlockTableRecord
  2
*D18
340
0
  0
BLOCK_RECORD
  5
2455
330
1
100
AcDbSymbolTableRecord
100
AcDbBlockTableRecord
  2
*D19
340
0
  0
BLOCK_RECORD
  5
2489
330
1
100
AcDbSymbolTableRecord
100
AcDbBlockTableRecord
  2
*D20
340
0
  0
BLOCK_RECORD
  5
24A3
330
1
100
AcDbSymbolTableRecord
100
AcDbBlockTableRecord
  2
*D21
340
0
  0
ENDTAB
  0
ENDSEC
  0
SECTION
  2
BLOCKS
  0
BLOCK
  5
20
330
1F
100
AcDbEntity
  8
0
100
AcDbBlockBegin
  2
*Model_Space
 70
     0
 10
0.0
 20
0.0
 30
0.0
  3
*Model_Space
  1

  0
ENDBLK
  5
21
330
1F
100
AcDbEntity
  8
0
100
AcDbBlockEnd
  0
BLOCK
  5
5A
330
58
100
AcDbEntity
 67
     1
  8
0
100
AcDbBlockBegin
  2
*Paper_Space
 70
     0
 10
0.0
 20
0.0
 30
0.0
  3
*Paper_Space
  1

  0
ENDBLK
  5
5B
330
58
100
AcDbEntity
 67
     1
  8
0
100
AcDbBlockEnd
  0
BLOCK
  5
5F
330
5D
100
AcDbEntity
  8
0
100
AcDbBlockBegin
  2
*Paper_Space0
 70
     0
 10
0.0
 20
0.0
 30
0.0
  3
*Paper_Space0
  1

  0
ENDBLK
  5
60
330
5D
100
AcDbEntity
  8
0
100
AcDbBlockEnd
  0
BLOCK
  5
225A
330
224E
100
AcDbEntity
  8
0
 62
     1
100
AcDbBlockBegin
  2
*D6
 70
     1
 10
0.0
 20
0.0
 30
0.0
  3
*D6
  1

  0
LINE
  5
225D
330
224E
100
AcDbEntity
  8
0
 62
     0
370
    -2
100
AcDbLine
 10
29.46192977225933
 20
-21.50434181963919
 30
0.0
 11
32.19240720294878
 21
-21.50434181963919
 31
0.0
  0
LINE
  5
225E
330
224E
100
AcDbEntity
  8
0
 62
     0
370
    -2
100
AcDbLine
 10
29.46192977225933
 20
-23.00434181963919
 30
0.0
 11
32.19240720294878
 21
-23.00434181963919
 31
0.0
  0
LINE
  5
225F
330
224E
100
AcDbEntity
  8
0
 62
     0
370
    -2
100
AcDbLine
 10
31.83240720294878
 20
-21.86434181963919
 30
0.0
 11
31.83240720294878
 21
-22.64434181963919
 31
0.0
  0
LINE
  5
2260
330
224E
100
AcDbEntity
  8
0
 62
     0
370
    -2
100
AcDbLine
 10
31.83240720294878
 20
-23.00434181963919
 30
0.0
 11
31.83240720294878
 21
-23.36434181963919
 31
0.0
  0
LINE
  5
2261
330
224E
100
AcDbEntity
  8
0
 62
     0
370
    -2
100
AcDbLine
 10
31.83240720294878
 20
-23.36434181963919
 30
0.0
 11
31.47240720294878
 21
-23.36434181963919
 31
0.0
  0
SOLID
  5
2262
330
224E
100
AcDbEntity
  8
0
 62
     0
100
AcDbTrace
 10
31.77240720294879
 20
-21.86434181963919
 30
0.0
 11
31.89240720294878
 21
-21.86434181963919
 31
0.0
 12
31.83240720294878
 22
-21.50434181963919
 32
0.0
 13
31.83240720294878
 23
-21.50434181963919
 33
0.0
  0
SOLID
  5
2263
330
224E
100
AcDbEntity
  8
0
 62
     0
100
AcDbTrace
 10
31.77240720294879
 20
-22.64434181963919
 30
0.0
 11
31.89240720294878
 21
-22.64434181963919
 31
0.0
 12
31.83240720294878
 22
-23.00434181963919
 32
0.0
 13
31.83240720294878
 23
-23.00434181963919
 33
0.0
  0
MTEXT
  5
2264
330
224E
100
AcDbEntity
  8
0
 62
     0
100
AcDbMText
 10
30.54240720294879
 20
-23.36434181963919
 30
0.0
 40
0.36
 41
0.0
 71
     5
 72
     1
  1
\A1;1.5000
 73
     1
 44
1.0
  0
POINT
  5
2265
330
224E
100
AcDbEntity
  8
Defpoints
 62
     0
100
AcDbPoint
 10
29.33692977225934
 20
-21.50434181963919
 30
0.0
  0
POINT
  5
2266
330
224E
100
AcDbEntity
  8
Defpoints
 62
     0
100
AcDbPoint
 10
29.33692977225934
 20
-23.00434181963919
 30
0.0
  0
POINT
  5
2267
330
224E
100
AcDbEntity
  8
Defpoints
 62
     0
100
AcDbPoint
 10
31.83240720294878
 20
-23.00434181963919
 30
0.0
  0
ENDBLK
  5
225B
330
224E
100
AcDbEntity
  8
0
 62
     1
100
AcDbBlockEnd
  0
BLOCK
  5
2275
330
226A
100
AcDbEntity
  8
0
 62
     1
100
AcDbBlockBegin
  2
*D7
 70
     1
 10
0.0
 20
0.0
 30
0.0
  3
*D7
  1

  0
LINE
  5
2278
330
226A
100
AcDbEntity
  8
0
 62
     0
370
    -2
100
AcDbLine
 10
28.43692977225934
 20
-23.12934181963919
 30
0.0
 11
28.43692977225934
 21
-25.19298535273522
 31
0.0
  0
LINE
  5
2279
330
226A
100
AcDbEntity
  8
0
 62
     0
370
    -2
100
AcDbLine
 10
29.33692977225934
 20
-23.12934181963919
 30
0.0
 11
29.33692977225934
 21
-25.19298535273522
 31
0.0
  0
LINE
  5
227A
330
226A
100
AcDbEntity
  8
0
 62
     0
370
    -2
100
AcDbLine
 10
28.07692977225934
 20
-24.83298535273522
 30
0.0
 11
27.71692977225934
 21
-24.83298535273522
 31
0.0
  0
LINE
  5
227B
330
226A
100
AcDbEntity
  8
0
 62
     0
370
    -2
100
AcDbLine
 10
29.69692977225934
 20
-24.83298535273522
 30
0.0
 11
30.05692977225933
 21
-24.83298535273522
 31
0.0
  0
SOLID
  5
227C
330
226A
100
AcDbEntity
  8
0
 62
     0
100
AcDbTrace
 10
28.07692977225934
 20
-24.77298535273522
 30
0.0
 11
28.07692977225934
 21
-24.89298535273522
 31
0.0
 12
28.43692977225934
 22
-24.83298535273522
 32
0.0
 13
28.43692977225934
 23
-24.83298535273522
 33
0.0
  0
SOLID
  5
227D
330
226A
100
AcDbEntity
  8
0
 62
     0
100
AcDbTrace
 10
29.69692977225934
 20
-24.77298535273522
 30
0.0
 11
29.69692977225934
 21
-24.89298535273522
 31
0.0
 12
29.33692977225934
 22
-24.83298535273522
 32
0.0
 13
29.33692977225934
 23
-24.83298535273522
 33
0.0
  0
MTEXT
  5
227E
330
226A
100
AcDbEntity
  8
0
 62
     0
100
AcDbMText
 10
31.01692977225933
 20
-24.83298535273522
 30
0.0
 40
0.36
 41
0.0
 71
     5
 72
     1
  1
\A1;0.9000
 73
     1
 44
1.0
  0
POINT
  5
227F
330
226A
100
AcDbEntity
  8
Defpoints
 62
     0
100
AcDbPoint
 10
28.43692977225934
 20
-23.00434181963919
 30
0.0
  0
POINT
  5
2280
330
226A
100
AcDbEntity
  8
Defpoints
 62
     0
100
AcDbPoint
 10
29.33692977225934
 20
-23.00434181963919
 30
0.0
  0
POINT
  5
2281
330
226A
100
AcDbEntity
  8
Defpoints
 62
     0
100
AcDbPoint
 10
29.33692977225934
 20
-24.83298535273522
 30
0.0
  0
ENDBLK
  5
2276
330
226A
100
AcDbEntity
  8
0
 62
     1
100
AcDbBlockEnd
  0
BLOCK
  5
22E2
330
22D7
100
AcDbEntity
  8
0
 62
     3
100
AcDbBlockBegin
  2
*D9
 70
     1
 10
0.0
 20
0.0
 30
0.0
  3
*D9
  1

  0
ARC
  5
234B
330
22D7
100
AcDbEntity
  8
0
 62
     0
370
    -2
100
AcDbCircle
 10
44.14000677558533
 20
-26.79371835448566
 30
0.0
 40
2.65405936583792
100
AcDbArc
 50
32.77764284529035
 51
45.05215650963353
  0
ARC
  5
234C
330
22D7
100
AcDbEntity
  8
0
 62
     0
370
    -2
100
AcDbCircle
 10
44.14000677558533
 20
-26.79371835448566
 30
0.0
 40
2.65405936583792
100
AcDbArc
 50
71.86657926399828
 51
82.22235715470956
  0
SOLID
  5
234D
330
22D7
100
AcDbEntity
  8
0
 62
     0
100
AcDbTrace
 10
46.42401480951705
 20
-25.32787653657809
 30
0.0
 11
46.31894775349659
 21
-25.38584992477642
 31
0.0
 12
46.54540144610181
 22
-25.67206439873863
 32
0.0
 13
46.54540144610181
 23
-25.67206439873863
 33
0.0
  0
SOLID
  5
234E
330
22D7
100
AcDbEntity
  8
0
 62
     0
100
AcDbTrace
 10
44.49510864803346
 20
-24.22393627018811
 30
0.0
 11
44.50324712461692
 21
-24.10421256660816
 31
0.0
 12
44.14000677558533
 22
-24.13965898864773
 32
0.0
 13
44.14000677558533
 23
-24.13965898864773
 33
0.0
  0
MTEXT
  5
234F
330
22D7
100
AcDbEntity
  8
0
 62
     0
100
AcDbMText
 10
45.56603183337928
 20
-24.55530738865839
 30
0.0
 40
0.36
 41
0.0
 71
     5
 72
     1
  1
\A1;65°
 73
     1
 44
1.0
  0
POINT
  5
2350
330
22D7
100
AcDbEntity
  8
Defpoints
 62
     0
100
AcDbPoint
 10
45.9613328217988
 20
-24.86322552860508
 30
0.0
  0
POINT
  5
2351
330
22D7
100
AcDbEntity
  8
Defpoints
 62
     0
100
AcDbPoint
 10
44.14000677558534
 20
-36.93569546558456
 30
0.0
  0
POINT
  5
2352
330
22D7
100
AcDbEntity
  8
Defpoints
 62
     0
100
AcDbPoint
 10
46.57849520490862
 20
-25.65663252556987
 30
0.0
  0
POINT
  5
2353
330
22D7
100
AcDbEntity
  8
Defpoints
 62
     0
100
AcDbPoint
 10
45.67218741787196
 20
-26.07925078731057
 30
0.0
  0
POINT
  5
2354
330
22D7
100
AcDbEntity
  8
Defpoints
 62
     0
100
AcDbPoint
 10
44.14000677558535
 20
-0.9356954655845726
 30
0.0
  0
ENDBLK
  5
22E3
330
22D7
100
AcDbEntity
  8
0
 62
     3
100
AcDbBlockEnd
  0
BLOCK
  5
2306
330
22FB
100
AcDbEntity
  8
0
100
AcDbBlockBegin
  2
*D10
 70
     1
 10
0.0
 20
0.0
 30
0.0
  3
*D10
  1

  0
LINE
  5
2355
330
22FB
100
AcDbEntity
  8
0
 62
     0
370
    -2
100
AcDbLine
 10
45.67218741787197
 20
-26.20425078731058
 30
0.0
 11
45.67218741787197
 21
-30.11125417923251
 31
0.0
  0
LINE
  5
2356
330
22FB
100
AcDbEntity
  8
0
 62
     0
370
    -2
100
AcDbLine
 10
44.14000677558534
 20
-27.88891228204944
 30
0.0
 11
44.14000677558534
 21
-30.11125417923251
 31
0.0
  0
LINE
  5
2357
330
22FB
100
AcDbEntity
  8
0
 62
     0
370
    -2
100
AcDbLine
 10
45.31218741787197
 20
-29.75125417923251
 30
0.0
 11
44.50000677558533
 21
-29.75125417923251
 31
0.0
  0
LINE
  5
2358
330
22FB
100
AcDbEntity
  8
0
 62
     0
370
    -2
100
AcDbLine
 10
44.14000677558534
 20
-29.75125417923251
 30
0.0
 11
43.78000677558534
 21
-29.75125417923251
 31
0.0
  0
SOLID
  5
2359
330
22FB
100
AcDbEntity
  8
0
 62
     0
100
AcDbTrace
 10
45.31218741787197
 20
-29.69125417923251
 30
0.0
 11
45.31218741787197
 21
-29.81125417923252
 31
0.0
 12
45.67218741787197
 22
-29.75125417923251
 32
0.0
 13
45.67218741787197
 23
-29.75125417923251
 33
0.0
  0
SOLID
  5
235A
330
22FB
100
AcDbEntity
  8
0
 62
     0
100
AcDbTrace
 10
44.50000677558533
 20
-29.69125417923251
 30
0.0
 11
44.50000677558533
 21
-29.81125417923252
 31
0.0
 12
44.14000677558534
 22
-29.75125417923251
 32
0.0
 13
44.14000677558534
 23
-29.75125417923251
 33
0.0
  0
MTEXT
  5
235B
330
22FB
100
AcDbEntity
  8
0
 62
     0
100
AcDbMText
 10
42.76000677558534
 20
-29.75125417923251
 30
0.0
 40
0.36
 41
0.0
 71
     5
 72
     1
  1
\A1;1.5322
 73
     1
 44
1.0
  0
POINT
  5
235C
330
22FB
100
AcDbEntity
  8
Defpoints
 62
     0
100
AcDbPoint
 10
45.67218741787197
 20
-26.07925078731057
 30
0.0
  0
POINT
  5
235D
330
22FB
100
AcDbEntity
  8
Defpoints
 62
     0
100
AcDbPoint
 10
44.14000677558534
 20
-27.76391228204944
 30
0.0
  0
POINT
  5
235E
330
22FB
100
AcDbEntity
  8
Defpoints
 62
     0
100
AcDbPoint
 10
44.14000677558534
 20
-29.75125417923251
 30
0.0
  0
ENDBLK
  5
2307
330
22FB
100
AcDbEntity
  8
0
100
AcDbBlockEnd
  0
BLOCK
  5
2320
330
2315
100
AcDbEntity
  8
0
100
AcDbBlockBegin
  2
*D11
 70
     1
 10
0.0
 20
0.0
 30
0.0
  3
*D11
  1

  0
LINE
  5
235F
330
2315
100
AcDbEntity
  8
0
 62
     0
370
    -2
100
AcDbLine
 10
44.01500677558535
 20
-18.93569546558457
 30
0.0
 11
40.44692216233706
 21
-18.93569546558457
 31
0.0
  0
LINE
  5
2360
330
2315
100
AcDbEntity
  8
0
 62
     0
370
    -2
100
AcDbLine
 10
45.54718741787197
 20
-26.07925078731057
 30
0.0
 11
40.44692216233706
 21
-26.07925078731057
 31
0.0
  0
LINE
  5
2361
330
2315
100
AcDbEntity
  8
0
 62
     0
370
    -2
100
AcDbLine
 10
40.80692216233706
 20
-19.29569546558457
 30
0.0
 11
40.80692216233706
 21
-22.14747312644757
 31
0.0
  0
LINE
  5
2362
330
2315
100
AcDbEntity
  8
0
 62
     0
370
    -2
100
AcDbLine
 10
40.80692216233706
 20
-25.71925078731057
 30
0.0
 11
40.80692216233706
 21
-22.86747312644757
 31
0.0
  0
SOLID
  5
2363
330
2315
100
AcDbEntity
  8
0
 62
     0
100
AcDbTrace
 10
40.74692216233706
 20
-19.29569546558457
 30
0.0
 11
40.86692216233706
 21
-19.29569546558457
 31
0.0
 12
40.80692216233706
 22
-18.93569546558457
 32
0.0
 13
40.80692216233706
 23
-18.93569546558457
 33
0.0
  0
SOLID
  5
2364
330
2315
100
AcDbEntity
  8
0
 62
     0
100
AcDbTrace
 10
40.74692216233706
 20
-25.71925078731057
 30
0.0
 11
40.86692216233706
 21
-25.71925078731057
 31
0.0
 12
40.80692216233706
 22
-26.07925078731057
 32
0.0
 13
40.80692216233706
 23
-26.07925078731057
 33
0.0
  0
MTEXT
  5
2365
330
2315
100
AcDbEntity
  8
0
 62
     0
100
AcDbMText
 10
40.80692216233706
 20
-22.50747312644756
 30
0.0
 40
0.36
 41
0.0
 71
     5
 72
     1
  1
\A1;7.1436
 73
     1
 44
1.0
  0
POINT
  5
2366
330
2315
100
AcDbEntity
  8
Defpoints
 62
     0
100
AcDbPoint
 10
44.14000677558535
 20
-18.93569546558457
 30
0.0
  0
POINT
  5
2367
330
2315
100
AcDbEntity
  8
Defpoints
 62
     0
100
AcDbPoint
 10
45.67218741787197
 20
-26.07925078731057
 30
0.0
  0
POINT
  5
2368
330
2315
100
AcDbEntity
  8
Defpoints
 62
     0
100
AcDbPoint
 10
40.80692216233706
 20
-26.07925078731057
 30
0.0
  0
ENDBLK
  5
2321
330
2315
100
AcDbEntity
  8
0
100
AcDbBlockEnd
  0
BLOCK
  5
233D
330
2334
100
AcDbEntity
  8
0
100
AcDbBlockBegin
  2
*D12
 70
     1
 10
0.0
 20
0.0
 30
0.0
  3
*D12
  1

  0
LINE
  5
2340
330
2334
100
AcDbEntity
  8
0
 62
     0
370
    -2
100
AcDbLine
 10
52.09457823865606
 20
-24.53193651404058
 30
0.0
 11
51.73457823865605
 21
-24.53193651404058
 31
0.0
  0
LINE
  5
2341
330
2334
100
AcDbEntity
  8
0
 62
     0
370
    -2
100
AcDbLine
 10
51.73457823865605
 20
-24.53193651404058
 30
0.0
 11
49.86386702770561
 21
-23.15345835771089
 31
0.0
  0
MTEXT
  5
2342
330
2334
100
AcDbEntity
  8
0
 62
     0
100
AcDbMText
 10
53.38457823865606
 20
-24.53193651404058
 30
0.0
 40
0.36
 41
0.0
 71
     5
 72
     1
  1
\A1;\U+220513.5000
 73
     1
 44
1.0
  0
SOLID
  5
2343
330
2334
100
AcDbEntity
  8
0
 62
     0
100
AcDbTrace
 10
49.89945996350415
 20
-23.10515573954954
 30
0.0
 11
49.82827409190708
 21
-23.20176097587224
 31
0.0
 12
49.5740513187375
 22
-22.93990074291968
 32
0.0
 13
49.5740513187375
 23
-22.93990074291968
 33
0.0
  0
LINE
  5
2344
330
2334
100
AcDbEntity
  8
0
 62
     0
370
    -2
100
AcDbLine
 10
43.96000677558535
 20
-18.93569546558457
 30
0.0
 11
44.32000677558534
 21
-18.93569546558457
 31
0.0
  0
LINE
  5
2345
330
2334
100
AcDbEntity
  8
0
 62
     0
370
    -2
100
AcDbLine
 10
44.14000677558534
 20
-19.11569546558457
 30
0.0
 11
44.14000677558534
 21
-18.75569546558457
 31
0.0
  0
POINT
  5
2346
330
2334
100
AcDbEntity
  8
Defpoints
 62
     0
100
AcDbPoint
 10
49.5740513187375
 20
-22.93990074291968
 30
0.0
  0
POINT
  5
2347
330
2334
100
AcDbEntity
  8
Defpoints
 62
     0
100
AcDbPoint
 10
38.70596223243321
 20
-14.93149018824946
 30
0.0
  0
ENDBLK
  5
233E
330
2334
100
AcDbEntity
  8
0
100
AcDbBlockEnd
  0
BLOCK
  5
2391
330
2386
100
AcDbEntity
  8
0
100
AcDbBlockBegin
  2
*D13
 70
     1
 10
0.0
 20
0.0
 30
0.0
  3
*D13
  1

  0
LINE
  5
2394
330
2386
100
AcDbEntity
  8
0
 62
     0
370
    -2
100
AcDbLine
 10
61.30615644004297
 20
-24.44947861739109
 30
0.0
 11
58.05084191959328
 21
-24.44947861739109
 31
0.0
  0
LINE
  5
2395
330
2386
100
AcDbEntity
  8
0
 62
     0
370
    -2
100
AcDbLine
 10
60.43115644004297
 20
-25.44947861739109
 30
0.0
 11
58.05084191959328
 21
-25.44947861739109
 31
0.0
  0
LINE
  5
2396
330
2386
100
AcDbEntity
  8
0
 62
     0
370
    -2
100
AcDbLine
 10
58.41084191959328
 20
-24.08947861739109
 30
0.0
 11
58.41084191959328
 21
-23.72947861739109
 31
0.0
  0
LINE
  5
2397
330
2386
100
AcDbEntity
  8
0
 62
     0
370
    -2
100
AcDbLine
 10
58.41084191959328
 20
-25.80947861739109
 30
0.0
 11
58.41084191959328
 21
-26.16947861739109
 31
0.0
  0
SOLID
  5
2398
330
2386
100
AcDbEntity
  8
0
 62
     0
100
AcDbTrace
 10
58.35084191959328
 20
-24.08947861739109
 30
0.0
 11
58.47084191959329
 21
-24.08947861739109
 31
0.0
 12
58.41084191959328
 22
-24.44947861739109
 32
0.0
 13
58.41084191959328
 23
-24.44947861739109
 33
0.0
  0
SOLID
  5
2399
330
2386
100
AcDbEntity
  8
0
 62
     0
100
AcDbTrace
 10
58.35084191959328
 20
-25.80947861739109
 30
0.0
 11
58.47084191959329
 21
-25.80947861739109
 31
0.0
 12
58.41084191959328
 22
-25.44947861739109
 32
0.0
 13
58.41084191959328
 23
-25.44947861739109
 33
0.0
  0
MTEXT
  5
239A
330
2386
100
AcDbEntity
  8
0
 62
     0
100
AcDbMText
 10
58.41084191959328
 20
-24.94947861739108
 30
0.0
 40
0.36
 41
0.0
 71
     5
 72
     1
  1
\A1;1.0000
 73
     1
 44
1.0
  0
POINT
  5
239B
330
2386
100
AcDbEntity
  8
Defpoints
 62
     0
100
AcDbPoint
 10
61.43115644004296
 20
-24.44947861739109
 30
0.0
  0
POINT
  5
239C
330
2386
100
AcDbEntity
  8
Defpoints
 62
     0
100
AcDbPoint
 10
60.55615644004297
 20
-25.44947861739109
 30
0.0
  0
POINT
  5
239D
330
2386
100
AcDbEntity
  8
Defpoints
 62
     0
100
AcDbPoint
 10
58.41084191959328
 20
-25.44947861739109
 30
0.0
  0
ENDBLK
  5
2392
330
2386
100
AcDbEntity
  8
0
100
AcDbBlockEnd
  0
BLOCK
  5
23BF
330
23B3
100
AcDbEntity
  8
0
100
AcDbBlockBegin
  2
*D14
 70
     1
 10
0.0
 20
0.0
 30
0.0
  3
*D14
  1

  0
LINE
  5
23CE
330
23B3
100
AcDbEntity
  8
0
 62
     0
370
    -2
100
AcDbLine
 10
61.43115644004296
 20
-24.44947861739109
 30
0.0
 11
59.61768747719926
 21
-24.44947861739109
 31
0.0
  0
LINE
  5
23CF
330
23B3
100
AcDbEntity
  8
0
 62
     0
370
    -2
100
AcDbLine
 10
63.68115644004297
 20
-24.44947861739109
 30
0.0
 11
59.61768747719926
 21
-24.44947861739109
 31
0.0
  0
LINE
  5
23D0
330
23B3
100
AcDbEntity
  8
0
 62
     0
370
    -2
100
AcDbLine
 10
59.97768747719925
 20
-24.80947861739109
 30
0.0
 11
59.97768747719925
 21
-25.16947861739109
 31
0.0
  0
LINE
  5
23D1
330
23B3
100
AcDbEntity
  8
0
 62
     0
370
    -2
100
AcDbLine
 10
59.97768747719925
 20
-24.08947861739109
 30
0.0
 11
59.97768747719925
 21
-23.72947861739109
 31
0.0
  0
LINE
  5
23D2
330
23B3
100
AcDbEntity
  8
0
 62
     0
370
    -2
100
AcDbLine
 10
59.97768747719925
 20
-23.72947861739109
 30
0.0
 11
60.33768747719925
 21
-23.72947861739109
 31
0.0
  0
SOLID
  5
23D3
330
23B3
100
AcDbEntity
  8
0
 62
     0
100
AcDbTrace
 10
59.91768747719925
 20
-24.80947861739109
 30
0.0
 11
60.03768747719925
 21
-24.80947861739109
 31
0.0
 12
59.97768747719925
 22
-24.44947861739109
 32
0.0
 13
59.97768747719925
 23
-24.44947861739109
 33
0.0
  0
SOLID
  5
23D4
330
23B3
100
AcDbEntity
  8
0
 62
     0
100
AcDbTrace
 10
59.91768747719925
 20
-24.08947861739109
 30
0.0
 11
60.03768747719925
 21
-24.08947861739109
 31
0.0
 12
59.97768747719925
 22
-24.44947861739109
 32
0.0
 13
59.97768747719925
 23
-24.44947861739109
 33
0.0
  0
MTEXT
  5
23D5
330
23B3
100
AcDbEntity
  8
0
 62
     0
100
AcDbMText
 10
61.26768747719926
 20
-23.72947861739108
 30
0.0
 40
0.36
 41
0.0
 71
     5
 72
     1
  1
\A1;0.0000
 73
     1
 44
1.0
  0
POINT
  5
23D6
330
23B3
100
AcDbEntity
  8
Defpoints
 62
     0
100
AcDbPoint
 10
61.55615644004297
 20
-24.44947861739109
 30
0.0
  0
POINT
  5
23D7
330
23B3
100
AcDbEntity
  8
Defpoints
 62
     0
100
AcDbPoint
 10
63.80615644004297
 20
-24.44947861739109
 30
0.0
  0
POINT
  5
23D8
330
23B3
100
AcDbEntity
  8
Defpoints
 62
     0
100
AcDbPoint
 10
59.97768747719925
 20
-24.44947861739109
 30
0.0
  0
ENDBLK
  5
23C0
330
23B3
100
AcDbEntity
  8
0
100
AcDbBlockEnd
  0
BLOCK
  5
23F4
330
23E9
100
AcDbEntity
  8
0
100
AcDbBlockBegin
  2
*D15
 70
     1
 10
0.0
 20
0.0
 30
0.0
  3
*D15
  1

  0
LINE
  5
24C7
330
23E9
100
AcDbEntity
  8
0
 62
     0
370
    -2
100
AcDbLine
 10
61.05615644004297
 20
-22.69947861739109
 30
0.0
 11
61.05615644004297
 21
-18.77797988357856
 31
0.0
  0
LINE
  5
24C8
330
23E9
100
AcDbEntity
  8
0
 62
     0
370
    -2
100
AcDbLine
 10
62.05615644004296
 20
-22.32447861739109
 30
0.0
 11
62.05615644004296
 21
-18.77797988357856
 31
0.0
  0
LINE
  5
24C9
330
23E9
100
AcDbEntity
  8
0
 62
     0
370
    -2
100
AcDbLine
 10
60.69615644004297
 20
-19.13797988357856
 30
0.0
 11
60.33615644004297
 21
-19.13797988357856
 31
0.0
  0
LINE
  5
24CA
330
23E9
100
AcDbEntity
  8
0
 62
     0
370
    -2
100
AcDbLine
 10
62.41615644004297
 20
-19.13797988357856
 30
0.0
 11
62.77615644004296
 21
-19.13797988357856
 31
0.0
  0
SOLID
  5
24CB
330
23E9
100
AcDbEntity
  8
0
 62
     0
100
AcDbTrace
 10
60.69615644004297
 20
-19.07797988357856
 30
0.0
 11
60.69615644004297
 21
-19.19797988357856
 31
0.0
 12
61.05615644004297
 22
-19.13797988357856
 32
0.0
 13
61.05615644004297
 23
-19.13797988357856
 33
0.0
  0
SOLID
  5
24CC
330
23E9
100
AcDbEntity
  8
0
 62
     0
100
AcDbTrace
 10
62.41615644004297
 20
-19.07797988357856
 30
0.0
 11
62.41615644004297
 21
-19.19797988357856
 31
0.0
 12
62.05615644004296
 22
-19.13797988357856
 32
0.0
 13
62.05615644004296
 23
-19.13797988357856
 33
0.0
  0
MTEXT
  5
24CD
330
23E9
100
AcDbEntity
  8
0
 62
     0
100
AcDbMText
 10
61.55615644004297
 20
-19.13797988357856
 30
0.0
 40
0.36
 41
0.0
 71
     5
 72
     1
  1
\A1;1.0
 73
     1
 44
1.0
  0
POINT
  5
24CE
330
23E9
100
AcDbEntity
  8
Defpoints
 62
     0
100
AcDbPoint
 10
61.05615644004297
 20
-22.82447861739109
 30
0.0
  0
POINT
  5
24CF
330
23E9
100
AcDbEntity
  8
Defpoints
 62
     0
100
AcDbPoint
 10
62.05615644004296
 20
-22.44947861739109
 30
0.0
  0
POINT
  5
24D0
330
23E9
100
AcDbEntity
  8
Defpoints
 62
     0
100
AcDbPoint
 10
62.05615644004296
 20
-19.13797988357856
 30
0.0
  0
ENDBLK
  5
23F5
330
23E9
100
AcDbEntity
  8
0
100
AcDbBlockEnd
  0
BLOCK
  5
240F
330
2403
100
AcDbEntity
  8
0
100
AcDbBlockBegin
  2
*D16
 70
     1
 10
0.0
 20
0.0
 30
0.0
  3
*D16
  1

  0
LINE
  5
24BC
330
2403
100
AcDbEntity
  8
0
 62
     0
370
    -2
100
AcDbLine
 10
60.80615644004296
 20
-22.94947861739109
 30
0.0
 11
57.24930390809245
 21
-22.94947861739109
 31
0.0
  0
LINE
  5
24BD
330
2403
100
AcDbEntity
  8
0
 62
     0
370
    -2
100
AcDbLine
 10
60.93115644004297
 20
-22.44947861739109
 30
0.0
 11
57.24930390809245
 21
-22.44947861739109
 31
0.0
  0
LINE
  5
24BE
330
2403
100
AcDbEntity
  8
0
 62
     0
370
    -2
100
AcDbLine
 10
57.60930390809244
 20
-23.30947861739109
 30
0.0
 11
57.60930390809244
 21
-23.66947861739109
 31
0.0
  0
LINE
  5
24BF
330
2403
100
AcDbEntity
  8
0
 62
     0
370
    -2
100
AcDbLine
 10
57.60930390809244
 20
-22.08947861739109
 30
0.0
 11
57.60930390809244
 21
-21.72947861739109
 31
0.0
  0
LINE
  5
24C0
330
2403
100
AcDbEntity
  8
0
 62
     0
370
    -2
100
AcDbLine
 10
57.60930390809244
 20
-21.72947861739109
 30
0.0
 11
57.96930390809244
 21
-21.72947861739109
 31
0.0
  0
SOLID
  5
24C1
330
2403
100
AcDbEntity
  8
0
 62
     0
100
AcDbTrace
 10
57.54930390809244
 20
-23.30947861739109
 30
0.0
 11
57.66930390809244
 21
-23.30947861739109
 31
0.0
 12
57.60930390809244
 22
-22.94947861739109
 32
0.0
 13
57.60930390809244
 23
-22.94947861739109
 33
0.0
  0
SOLID
  5
24C2
330
2403
100
AcDbEntity
  8
0
 62
     0
100
AcDbTrace
 10
57.54930390809244
 20
-22.08947861739109
 30
0.0
 11
57.66930390809244
 21
-22.08947861739109
 31
0.0
 12
57.60930390809244
 22
-22.44947861739109
 32
0.0
 13
57.60930390809244
 23
-22.44947861739109
 33
0.0
  0
MTEXT
  5
24C3
330
2403
100
AcDbEntity
  8
0
 62
     0
100
AcDbMText
 10
58.47930390809245
 20
-21.72947861739108
 30
0.0
 40
0.36
 41
0.0
 71
     5
 72
     1
  1
\A1;0.5
 73
     1
 44
1.0
  0
POINT
  5
24C4
330
2403
100
AcDbEntity
  8
Defpoints
 62
     0
100
AcDbPoint
 10
60.93115644004297
 20
-22.94947861739109
 30
0.0
  0
POINT
  5
24C5
330
2403
100
AcDbEntity
  8
Defpoints
 62
     0
100
AcDbPoint
 10
61.05615644004297
 20
-22.44947861739109
 30
0.0
  0
POINT
  5
24C6
330
2403
100
AcDbEntity
  8
Defpoints
 62
     0
100
AcDbPoint
 10
57.60930390809244
 20
-22.44947861739109
 30
0.0
  0
ENDBLK
  5
2410
330
2403
100
AcDbEntity
  8
0
100
AcDbBlockEnd
  0
BLOCK
  5
242A
330
241F
100
AcDbEntity
  8
0
100
AcDbBlockBegin
  2
*D17
 70
     1
 10
0.0
 20
0.0
 30
0.0
  3
*D17
  1

  0
LINE
  5
24E5
330
241F
100
AcDbEntity
  8
0
 62
     0
370
    -2
100
AcDbLine
 10
62.05615644004296
 20
-24.82447861739109
 30
0.0
 11
62.05615644004296
 21
-27.71052397981846
 31
0.0
  0
LINE
  5
24E6
330
241F
100
AcDbEntity
  8
0
 62
     0
370
    -2
100
AcDbLine
 10
61.55615644004297
 20
-24.57447861739109
 30
0.0
 11
61.55615644004297
 21
-27.71052397981846
 31
0.0
  0
LINE
  5
24E7
330
241F
100
AcDbEntity
  8
0
 62
     0
370
    -2
100
AcDbLine
 10
62.41615644004297
 20
-27.35052397981846
 30
0.0
 11
62.77615644004296
 21
-27.35052397981846
 31
0.0
  0
LINE
  5
24E8
330
241F
100
AcDbEntity
  8
0
 62
     0
370
    -2
100
AcDbLine
 10
61.19615644004297
 20
-27.35052397981846
 30
0.0
 11
60.83615644004296
 21
-27.35052397981846
 31
0.0
  0
SOLID
  5
24E9
330
241F
100
AcDbEntity
  8
0
 62
     0
100
AcDbTrace
 10
62.41615644004297
 20
-27.29052397981846
 30
0.0
 11
62.41615644004297
 21
-27.41052397981846
 31
0.0
 12
62.05615644004296
 22
-27.35052397981846
 32
0.0
 13
62.05615644004296
 23
-27.35052397981846
 33
0.0
  0
SOLID
  5
24EA
330
241F
100
AcDbEntity
  8
0
 62
     0
100
AcDbTrace
 10
61.19615644004297
 20
-27.29052397981846
 30
0.0
 11
61.19615644004297
 21
-27.41052397981846
 31
0.0
 12
61.55615644004297
 22
-27.35052397981846
 32
0.0
 13
61.55615644004297
 23
-27.35052397981846
 33
0.0
  0
MTEXT
  5
24EB
330
241F
100
AcDbEntity
  8
0
 62
     0
100
AcDbMText
 10
60.32615644004297
 20
-27.35052397981846
 30
0.0
 40
0.36
 41
0.0
 71
     5
 72
     1
  1
\A1;0.5
 73
     1
 44
1.0
  0
POINT
  5
24EC
330
241F
100
AcDbEntity
  8
Defpoints
 62
     0
100
AcDbPoint
 10
62.05615644004296
 20
-24.69947861739109
 30
0.0
  0
POINT
  5
24ED
330
241F
100
AcDbEntity
  8
Defpoints
 62
     0
100
AcDbPoint
 10
61.55615644004297
 20
-24.44947861739109
 30
0.0
  0
POINT
  5
24EE
330
241F
100
AcDbEntity
  8
Defpoints
 62
     0
100
AcDbPoint
 10
61.55615644004297
 20
-27.35052397981846
 30
0.0
  0
ENDBLK
  5
242B
330
241F
100
AcDbEntity
  8
0
100
AcDbBlockEnd
  0
BLOCK
  5
2445
330
2439
100
AcDbEntity
  8
0
100
AcDbBlockBegin
  2
*D18
 70
     1
 10
0.0
 20
0.0
 30
0.0
  3
*D18
  1

  0
LINE
  5
24EF
330
2439
100
AcDbEntity
  8
0
 62
     0
370
    -2
100
AcDbLine
 10
61.30615644004297
 20
-24.44947861739109
 30
0.0
 11
58.44345810398666
 21
-24.44947861739109
 31
0.0
  0
LINE
  5
24F0
330
2439
100
AcDbEntity
  8
0
 62
     0
370
    -2
100
AcDbLine
 10
61.26358095979053
 20
-24.6994786173911
 30
0.0
 11
58.44345810398666
 21
-24.6994786173911
 31
0.0
  0
LINE
  5
24F1
330
2439
100
AcDbEntity
  8
0
 62
     0
370
    -2
100
AcDbLine
 10
58.80345810398665
 20
-24.08947861739109
 30
0.0
 11
58.80345810398665
 21
-23.72947861739109
 31
0.0
  0
LINE
  5
24F2
330
2439
100
AcDbEntity
  8
0
 62
     0
370
    -2
100
AcDbLine
 10
58.80345810398665
 20
-25.0594786173911
 30
0.0
 11
58.80345810398665
 21
-25.4194786173911
 31
0.0
  0
LINE
  5
24F3
330
2439
100
AcDbEntity
  8
0
 62
     0
370
    -2
100
AcDbLine
 10
58.80345810398665
 20
-25.4194786173911
 30
0.0
 11
58.44345810398666
 21
-25.4194786173911
 31
0.0
  0
SOLID
  5
24F4
330
2439
100
AcDbEntity
  8
0
 62
     0
100
AcDbTrace
 10
58.74345810398665
 20
-24.08947861739109
 30
0.0
 11
58.86345810398665
 21
-24.08947861739109
 31
0.0
 12
58.80345810398665
 22
-24.44947861739109
 32
0.0
 13
58.80345810398665
 23
-24.44947861739109
 33
0.0
  0
SOLID
  5
24F5
330
2439
100
AcDbEntity
  8
0
 62
     0
100
AcDbTrace
 10
58.74345810398665
 20
-25.0594786173911
 30
0.0
 11
58.86345810398665
 21
-25.0594786173911
 31
0.0
 12
58.80345810398665
 22
-24.6994786173911
 32
0.0
 13
58.80345810398665
 23
-24.6994786173911
 33
0.0
  0
MTEXT
  5
24F6
330
2439
100
AcDbEntity
  8
0
 62
     0
100
AcDbMText
 10
57.75345810398667
 20
-25.41947861739109
 30
0.0
 40
0.36
 41
0.0
 71
     5
 72
     1
  1
\A1;0.25
 73
     1
 44
1.0
  0
POINT
  5
24F7
330
2439
100
AcDbEntity
  8
Defpoints
 62
     0
100
AcDbPoint
 10
61.43115644004296
 20
-24.44947861739109
 30
0.0
  0
POINT
  5
24F8
330
2439
100
AcDbEntity
  8
Defpoints
 62
     0
100
AcDbPoint
 10
61.38858095979053
 20
-24.6994786173911
 30
0.0
  0
POINT
  5
24F9
330
2439
100
AcDbEntity
  8
Defpoints
 62
     0
100
AcDbPoint
 10
58.80345810398665
 20
-24.6994786173911
 30
0.0
  0
ENDBLK
  5
2446
330
2439
100
AcDbEntity
  8
0
100
AcDbBlockEnd
  0
BLOCK
  5
2460
330
2455
100
AcDbEntity
  8
0
100
AcDbBlockBegin
  2
*D19
 70
     1
 10
0.0
 20
0.0
 30
0.0
  3
*D19
  1

  0
LINE
  5
24D1
330
2455
100
AcDbEntity
  8
0
 62
     0
370
    -2
100
AcDbLine
 10
63.30615644004296
 20
-22.32447861739109
 30
0.0
 11
63.30615644004296
 21
-20.64816325081646
 31
0.0
  0
LINE
  5
24D2
330
2455
100
AcDbEntity
  8
0
 62
     0
370
    -2
100
AcDbLine
 10
64.30615644004297
 20
-22.32447861739109
 30
0.0
 11
64.30615644004297
 21
-20.64816325081646
 31
0.0
  0
LINE
  5
24D3
330
2455
100
AcDbEntity
  8
0
 62
     0
370
    -2
100
AcDbLine
 10
62.94615644004297
 20
-21.00816325081646
 30
0.0
 11
62.58615644004297
 21
-21.00816325081646
 31
0.0
  0
LINE
  5
24D4
330
2455
100
AcDbEntity
  8
0
 62
     0
370
    -2
100
AcDbLine
 10
64.66615644004297
 20
-21.00816325081646
 30
0.0
 11
65.02615644004297
 21
-21.00816325081646
 31
0.0
  0
SOLID
  5
24D5
330
2455
100
AcDbEntity
  8
0
 62
     0
100
AcDbTrace
 10
62.94615644004297
 20
-20.94816325081646
 30
0.0
 11
62.94615644004297
 21
-21.06816325081646
 31
0.0
 12
63.30615644004296
 22
-21.00816325081646
 32
0.0
 13
63.30615644004296
 23
-21.00816325081646
 33
0.0
  0
SOLID
  5
24D6
330
2455
100
AcDbEntity
  8
0
 62
     0
100
AcDbTrace
 10
64.66615644004297
 20
-20.94816325081646
 30
0.0
 11
64.66615644004297
 21
-21.06816325081646
 31
0.0
 12
64.30615644004297
 22
-21.00816325081646
 32
0.0
 13
64.30615644004297
 23
-21.00816325081646
 33
0.0
  0
MTEXT
  5
24D7
330
2455
100
AcDbEntity
  8
0
 62
     0
100
AcDbMText
 10
63.80615644004297
 20
-21.00816325081646
 30
0.0
 40
0.36
 41
0.0
 71
     5
 72
     1
  1
\A1;1.0
 73
     1
 44
1.0
  0
POINT
  5
24D8
330
2455
100
AcDbEntity
  8
Defpoints
 62
     0
100
AcDbPoint
 10
63.30615644004296
 20
-22.44947861739109
 30
0.0
  0
POINT
  5
24D9
330
2455
100
AcDbEntity
  8
Defpoints
 62
     0
100
AcDbPoint
 10
64.30615644004297
 20
-22.44947861739109
 30
0.0
  0
POINT
  5
24DA
330
2455
100
AcDbEntity
  8
Defpoints
 62
     0
100
AcDbPoint
 10
64.30615644004297
 20
-21.00816325081646
 30
0.0
  0
ENDBLK
  5
2461
330
2455
100
AcDbEntity
  8
0
100
AcDbBlockEnd
  0
BLOCK
  5
2494
330
2489
100
AcDbEntity
  8
0
100
AcDbBlockBegin
  2
*D20
 70
     1
 10
0.0
 20
0.0
 30
0.0
  3
*D20
  1

  0
LINE
  5
24FA
330
2489
100
AcDbEntity
  8
0
 62
     0
370
    -2
100
AcDbLine
 10
66.68115644004297
 20
-22.44947861739109
 30
0.0
 11
69.50374817232829
 21
-22.44947861739109
 31
0.0
  0
LINE
  5
24FB
330
2489
100
AcDbEntity
  8
0
 62
     0
370
    -2
100
AcDbLine
 10
66.34873192029539
 20
-24.69947861739109
 30
0.0
 11
69.50374817232829
 21
-24.69947861739109
 31
0.0
  0
LINE
  5
24FC
330
2489
100
AcDbEntity
  8
0
 62
     0
370
    -2
100
AcDbLine
 10
69.14374817232829
 20
-22.80947861739109
 30
0.0
 11
69.14374817232829
 21
-23.21447861739109
 31
0.0
  0
LINE
  5
24FD
330
2489
100
AcDbEntity
  8
0
 62
     0
370
    -2
100
AcDbLine
 10
69.14374817232829
 20
-24.3394786173911
 30
0.0
 11
69.14374817232829
 21
-23.93447861739109
 31
0.0
  0
SOLID
  5
24FE
330
2489
100
AcDbEntity
  8
0
 62
     0
100
AcDbTrace
 10
69.08374817232829
 20
-22.80947861739109
 30
0.0
 11
69.20374817232829
 21
-22.80947861739109
 31
0.0
 12
69.14374817232829
 22
-22.44947861739109
 32
0.0
 13
69.14374817232829
 23
-22.44947861739109
 33
0.0
  0
SOLID
  5
24FF
330
2489
100
AcDbEntity
  8
0
 62
     0
100
AcDbTrace
 10
69.08374817232829
 20
-24.3394786173911
 30
0.0
 11
69.20374817232829
 21
-24.3394786173911
 31
0.0
 12
69.14374817232829
 22
-24.69947861739109
 32
0.0
 13
69.14374817232829
 23
-24.69947861739109
 33
0.0
  0
MTEXT
  5
2500
330
2489
100
AcDbEntity
  8
0
 62
     0
100
AcDbMText
 10
69.14374817232829
 20
-23.57447861739108
 30
0.0
 40
0.36
 41
0.0
 71
     5
 72
     1
  1
\A1;2.25
 73
     1
 44
1.0
  0
POINT
  5
2501
330
2489
100
AcDbEntity
  8
Defpoints
 62
     0
100
AcDbPoint
 10
66.55615644004297
 20
-22.44947861739109
 30
0.0
  0
POINT
  5
2502
330
2489
100
AcDbEntity
  8
Defpoints
 62
     0
100
AcDbPoint
 10
66.22373192029539
 20
-24.69947861739109
 30
0.0
  0
POINT
  5
2503
330
2489
100
AcDbEntity
  8
Defpoints
 62
     0
100
AcDbPoint
 10
69.14374817232829
 20
-24.69947861739109
 30
0.0
  0
ENDBLK
  5
2495
330
2489
100
AcDbEntity
  8
0
100
AcDbBlockEnd
  0
BLOCK
  5
24AE
330
24A3
100
AcDbEntity
  8
0
100
AcDbBlockBegin
  2
*D21
 70
     1
 10
0.0
 20
0.0
 30
0.0
  3
*D21
  1

  0
LINE
  5
24DB
330
24A3
100
AcDbEntity
  8
0
 62
     0
370
    -2
100
AcDbLine
 10
63.80615644004297
 20
-24.69947861739109
 30
0.0
 11
63.80615644004297
 21
-27.14133775678142
 31
0.0
  0
LINE
  5
24DC
330
24A3
100
AcDbEntity
  8
0
 62
     0
370
    -2
100
AcDbLine
 10
64.30615644004297
 20
-24.82447861739109
 30
0.0
 11
64.30615644004297
 21
-27.14133775678142
 31
0.0
  0
LINE
  5
24DD
330
24A3
100
AcDbEntity
  8
0
 62
     0
370
    -2
100
AcDbLine
 10
63.44615644004297
 20
-26.78133775678142
 30
0.0
 11
63.08615644004297
 21
-26.78133775678142
 31
0.0
  0
LINE
  5
24DE
330
24A3
100
AcDbEntity
  8
0
 62
     0
370
    -2
100
AcDbLine
 10
64.66615644004297
 20
-26.78133775678142
 30
0.0
 11
65.02615644004297
 21
-26.78133775678142
 31
0.0
  0
SOLID
  5
24DF
330
24A3
100
AcDbEntity
  8
0
 62
     0
100
AcDbTrace
 10
63.44615644004297
 20
-26.72133775678142
 30
0.0
 11
63.44615644004297
 21
-26.84133775678142
 31
0.0
 12
63.80615644004297
 22
-26.78133775678142
 32
0.0
 13
63.80615644004297
 23
-26.78133775678142
 33
0.0
  0
SOLID
  5
24E0
330
24A3
100
AcDbEntity
  8
0
 62
     0
100
AcDbTrace
 10
64.66615644004297
 20
-26.72133775678142
 30
0.0
 11
64.66615644004297
 21
-26.84133775678142
 31
0.0
 12
64.30615644004297
 22
-26.78133775678142
 32
0.0
 13
64.30615644004297
 23
-26.78133775678142
 33
0.0
  0
MTEXT
  5
24E1
330
24A3
100
AcDbEntity
  8
0
 62
     0
100
AcDbMText
 10
65.53615644004297
 20
-26.78133775678142
 30
0.0
 40
0.36
 41
0.0
 71
     5
 72
     1
  1
\A1;0.5
 73
     1
 44
1.0
  0
POINT
  5
24E2
330
24A3
100
AcDbEntity
  8
Defpoints
 62
     0
100
AcDbPoint
 10
63.80615644004297
 20
-24.57447861739109
 30
0.0
  0
POINT
  5
24E3
330
24A3
100
AcDbEntity
  8
Defpoints
 62
     0
100
AcDbPoint
 10
64.30615644004297
 20
-24.69947861739109
 30
0.0
  0
POINT
  5
24E4
330
24A3
100
AcDbEntity
  8
Defpoints
 62
     0
100
AcDbPoint
 10
64.30615644004297
 20
-26.78133775678142
 30
0.0
  0
ENDBLK
  5
24AF
330
24A3
100
AcDbEntity
  8
0
100
AcDbBlockEnd
  0
ENDSEC
  0
SECTION
  2
ENTITIES
  0
LWPOLYLINE
  5
239F
102
{ACAD_REACTORS
330
250D
102
}
330
1F
100
AcDbEntity
  8
0
100
AcDbPolyline
 90
        6
 70
     0
 43
0.0
 10
61.05615644004297
 20
-22.44947861739109
 10
62.05615644004296
 20
-22.44947861739109
 10
62.05615644004296
 20
-24.69947861739109
 10
61.38858095979053
 20
-24.69947861739109
 42
-0.3000210814303701
 10
61.27368783103828
 20
-24.62371852971349
 10
60.55615644004297
 20
-22.94947861739109
  0
ARC
  5
23AC
102
{ACAD_REACTORS
330
250D
102
}
330
1F
100
AcDbEntity
  8
0
100
AcDbCircle
 10
61.05615644004297
 20
-22.94947861739109
 30
0.0
 40
0.5
100
AcDbArc
 50
90.0
 51
180.0
  0
LWPOLYLINE
  5
23B1
330
1F
100
AcDbEntity
  8
0
100
AcDbPolyline
 90
        4
 70
     1
 43
0.0
 10
62.15762197855332
 20
-22.44947861739109
 10
63.15762197855332
 20
-22.44947861739109
 10
63.15762197855332
 20
-24.69947861739109
 10
62.15762197855332
 20
-24.69947861739109
  0
LWPOLYLINE
  5
23E0
102
{ACAD_REACTORS
330
250C
102
}
330
1F
100
AcDbEntity
  8
0
100
AcDbPolyline
 90
        6
 70
     0
 43
0.0
 10
60.49045974558794
 20
-24.73532305754034
 10
59.49045974558794
 20
-24.73532305754034
 10
59.49045974558794
 20
-22.48532305754034
 10
60.15803522584036
 20
-22.48532305754034
 42
-0.3000210814303701
 10
60.27292835459263
 20
-22.56108314521794
 10
60.99045974558794
 20
-24.23532305754034
  0
ARC
  5
23E1
102
{ACAD_REACTORS
330
250C
102
}
330
1F
100
AcDbEntity
  8
0
100
AcDbCircle
 10
60.49045974558794
 20
-24.23532305754034
 30
0.0
 40
0.5
100
AcDbArc
 50
270.0
 51
0.0
  0
LWPOLYLINE
  5
2536
330
1F
100
AcDbEntity
  8
0
100
AcDbPolyline
 90
        6
 70
     0
 43
0.0
 10
61.06190257686745
 20
-24.83646871344911
 10
62.06190257686746
 20
-24.83646871344911
 10
62.06190257686746
 20
-27.0864687134491
 10
61.39432709661502
 20
-27.08646871344911
 42
-0.3000210814303701
 10
61.27943396786276
 20
-27.0107086257715
 10
60.56190257686745
 20
-25.3364687134491
  0
ARC
  5
2537
330
1F
100
AcDbEntity
  8
0
100
AcDbCircle
 10
61.06190257686745
 20
-25.3364687134491
 30
0.0
 40
0.5
100
AcDbArc
 50
90.0
 51
180.0
  0
LWPOLYLINE
  5
2538
330
1F
100
AcDbEntity
  8
0
100
AcDbPolyline
 90
        4
 70
     1
 43
0.0
 10
62.16336811537781
 20
-24.83646871344911
 10
63.1633681153778
 20
-24.83646871344911
 10
63.1633681153778
 20
-27.0864687134491
 10
62.16336811537781
 20
-27.0864687134491
  0
LWPOLYLINE
  5
2539
330
1F
100
AcDbEntity
  8
0
100
AcDbPolyline
 90
        6
 70
     0
 43
0.0
 10
60.49620588241243
 20
-27.12231315359835
 10
59.49620588241242
 20
-27.12231315359835
 10
59.49620588241242
 20
-24.87231315359835
 10
60.16378136266485
 20
-24.87231315359835
 42
-0.3000210814303701
 10
60.27867449141712
 20
-24.94807324127595
 10
60.99620588241243
 20
-26.62231315359835
  0
ARC
  5
253A
330
1F
100
AcDbEntity
  8
0
100
AcDbCircle
 10
60.49620588241243
 20
-26.62231315359835
 30
0.0
 40
0.5
100
AcDbArc
 50
270.0
 51
0.0
  0
ENDSEC
  0
SECTION
  2
OBJECTS
  0
DICTIONARY
  5
C
330
0
100
AcDbDictionary
281
     1
  3
ACAD_GROUP
350
D
  3
ACAD_LAYOUT
350
1A
  3
ACAD_MLINESTYLE
350
17
  3
ACAD_PLOTSETTINGS
350
19
  3
ACAD_PLOTSTYLENAME
350
E
  3
AcDbVariableDictionary
350
66
  0
DICTIONARY
  5
1F2E
330
1F
100
AcDbDictionary
280
     1
281
     1
  3
ACAD_SORTENTS
360
1F2F
  0
DICTIONARY
  5
D
102
{ACAD_REACTORS
330
C
102
}
330
C
100
AcDbDictionary
281
     1
  3
*A1
350
35E
  3
*A10
350
151D
  3
*A100
350
204B
  3
*A101
350
18E1
  3
*A102
350
1FC5
  3
*A103
350
192A
  3
*A104
350
35C
  3
*A105
350
1958
  3
*A106
350
427
  3
*A107
350
E75
  3
*A108
350
EA5
  3
*A109
350
78F
  3
*A11
350
1A80
  3
*A110
350
1961
  3
*A111
350
1963
  3
*A112
350
204F
  3
*A113
350
1FD8
  3
*A114
350
1969
  3
*A115
350
12C8
  3
*A116
350
196A
  3
*A117
350
100E
  3
*A118
350
199E
  3
*A119
350
38B
  3
*A12
350
46A
  3
*A120
350
19C5
  3
*A121
350
35D
  3
*A122
350
19C6
  3
*A123
350
19C7
  3
*A125
350
236B
  3
*A129
350
250C
  3
*A13
350
390
  3
*A130
350
250D
  3
*A14
350
1A81
  3
*A15
350
2057
  3
*A16
350
1A82
  3
*A17
350
35F
  3
*A18
350
1A83
  3
*A19
350
D45
  3
*A2
350
2012
  3
*A20
350
1A84
  3
*A21
350
ED1
  3
*A22
350
1A85
  3
*A23
350
366
  3
*A24
350
203B
  3
*A25
350
1A86
  3
*A26
350
100F
  3
*A27
350
2290
  3
*A29
350
3EB
  3
*A3
350
2053
  3
*A30
350
20EC
  3
*A31
350
216C
  3
*A32
350
2083
  3
*A33
350
2190
  3
*A34
350
2193
  3
*A35
350
2196
  3
*A36
350
205B
  3
*A37
350
2199
  3
*A38
350
219C
  3
*A39
350
219F
  3
*A4
350
124C
  3
*A40
350
2087
  3
*A41
350
21A2
  3
*A42
350
21A5
  3
*A43
350
21A8
  3
*A44
350
21AB
  3
*A45
350
21AE
  3
*A46
350
208B
  3
*A47
350
1088
  3
*A48
350
36A
  3
*A49
350
208F
  3
*A5
350
1A7C
  3
*A50
350
2093
  3
*A51
350
2097
  3
*A52
350
209B
  3
*A53
350
309
  3
*A54
350
209F
  3
*A55
350
20A3
  3
*A56
350
20A7
  3
*A57
350
D40
  3
*A58
350
127A
  3
*A59
350
D3E
  3
*A6
350
1A7D
  3
*A60
350
15E1
  3
*A61
350
1236
  3
*A62
350
1686
  3
*A63
350
7A4
  3
*A64
350
203F
  3
*A65
350
D46
  3
*A66
350
151A
  3
*A67
350
169E
  3
*A68
350
D44
  3
*A69
350
1F54
  3
*A7
350
12E0
  3
*A70
350
16B3
  3
*A71
350
12C7
  3
*A72
350
16F0
  3
*A73
350
16F1
  3
*A74
350
16FC
  3
*A75
350
D41
  3
*A76
350
2043
  3
*A77
350
ED0
  3
*A78
350
30C
  3
*A79
350
151B
  3
*A8
350
1A7E
  3
*A80
350
1442
  3
*A81
350
1700
  3
*A82
350
D47
  3
*A83
350
30A
  3
*A84
350
1716
  3
*A85
350
30D
  3
*A86
350
30E
  3
*A87
350
D3D
  3
*A88
350
2047
  3
*A89
350
D42
  3
*A9
350
1A7F
  3
*A90
350
30B
  3
*A91
350
1FB3
  3
*A92
350
D43
  3
*A93
350
10AE
  3
*A94
350
124B
  3
*A95
350
18DD
  3
*A96
350
361
  3
*A97
350
100D
  3
*A98
350
18DF
  3
*A99
350
D3F
  0
DICTIONARY
  5
1A
102
{ACAD_REACTORS
330
C
102
}
330
C
100
AcDbDictionary
281
     1
  3
Layout1
350
59
  3
Layout2
350
5E
  3
Model
350
22
  0
DICTIONARY
  5
17
102
{ACAD_REACTORS
330
C
102
}
330
C
100
AcDbDictionary
281
     1
  3
Standard
350
18
  0
DICTIONARY
  5
19
102
{ACAD_REACTORS
330
C
102
}
330
C
100
AcDbDictionary
281
     1
  0
ACDBDICTIONARYWDFLT
  5
E
102
{ACAD_REACTORS
330
C
102
}
330
C
100
AcDbDictionary
281
     1
  3
Normal
350
F
100
AcDbDictionaryWithDefault
340
F
  0
DICTIONARY
  5
66
102
{ACAD_REACTORS
330
C
102
}
330
C
100
AcDbDictionary
281
     1
  3
DIMASSOC
350
67
  3
HIDETEXT
350
6B
  3
SORTENTS
350
1F33
  0
SORTENTSTABLE
  5
1F2F
102
{ACAD_REACTORS
330
1F2E
102
}
330
1F2E
100
AcDbSortentsTable
330
1F
331
1F1C
  5
1F14
331
1F6B
  5
1F69
331
1F1F
  5
1F1D
331
1F43
  5
1F34
331
1F22
  5
1F1F
331
1F46
  5
1F44
331
1A3E
  5
1C15
331
1F0A
  5
1F09
331
1F2B
  5
1F2A
331
1F4C
  5
1F4A
331
1E5D
  5
1E5E
331
1F52
  5
1F50
331
1F4F
  5
1F4D
331
1F49
  5
1F46
331
1FAB
  5
1F8F
331
1F8F
  5
1F8D
331
1F8C
  5
1F6C
331
1F01
  5
1EFE
331
1EFE
  5
1EFD
331
1FE7
  5
1FDF
331
1FAE
  5
1FAC
331
1EC5
  5
1FF5
331
1F69
  5
1F62
331
1F6C
  5
1F6A
331
1F30
  5
1F2B
331
1F1D
  5
1F1C
331
1DED
  5
1DEE
331
1F8D
  5
1F8B
331
1F44
  5
1F3D
331
1F23
  5
1F22
331
1A36
  5
1A3A
331
1F90
  5
1F8E
331
1F08
  5
1F01
331
1F2C
  5
1A36
331
1F50
  5
1F4E
331
1FAC
  5
1F90
331
1F14
  5
1F0E
331
1F53
  5
1F51
331
1F0E
  5
1F0A
331
1F4D
  5
1F4B
331
1F4A
  5
1F48
331
1F29
  5
1F27
331
1F31
  5
1F2C
331
1F34
  5
1F30
331
1EFD
  5
1EC5
331
1A3A
  5
1A3E
331
1F45
  5
1F43
331
1F8B
  5
1F6B
331
1F27
  5
1F23
331
1F09
  5
1F08
331
1F51
  5
1F4F
331
1F4E
  5
1F4C
331
1F4B
  5
1F49
331
1F2A
  5
1F29
331
1F48
  5
1F45
331
1F8E
  5
1F8C
331
1FAD
  5
1FAB
331
1F6A
  5
1F63
331
1CD2
  5
1DED
  0
GROUP
  5
35E
102
{ACAD_REACTORS
330
D
102
}
330
D
100
AcDbGroup
300

 70
     1
 71
     1
  0
GROUP
  5
151D
102
{ACAD_REACTORS
330
D
102
}
330
D
100
AcDbGroup
300

 70
     1
 71
     1
  0
GROUP
  5
204B
102
{ACAD_REACTORS
330
D
102
}
330
D
100
AcDbGroup
300

 70
     1
 71
     1
  0
GROUP
  5
18E1
102
{ACAD_REACTORS
330
D
102
}
330
D
100
AcDbGroup
300

 70
     1
 71
     1
  0
GROUP
  5
1FC5
102
{ACAD_REACTORS
330
D
102
}
330
D
100
AcDbGroup
300

 70
     1
 71
     1
  0
GROUP
  5
192A
102
{ACAD_REACTORS
330
D
102
}
330
D
100
AcDbGroup
300

 70
     1
 71
     1
  0
GROUP
  5
35C
102
{ACAD_REACTORS
330
D
102
}
330
D
100
AcDbGroup
300

 70
     1
 71
     1
  0
GROUP
  5
1958
102
{ACAD_REACTORS
330
D
102
}
330
D
100
AcDbGroup
300

 70
     1
 71
     1
  0
GROUP
  5
427
102
{ACAD_REACTORS
330
D
102
}
330
D
100
AcDbGroup
300

 70
     1
 71
     1
  0
GROUP
  5
E75
102
{ACAD_REACTORS
330
D
102
}
330
D
100
AcDbGroup
300

 70
     1
 71
     1
  0
GROUP
  5
EA5
102
{ACAD_REACTORS
330
D
102
}
330
D
100
AcDbGroup
300

 70
     1
 71
     1
  0
GROUP
  5
78F
102
{ACAD_REACTORS
330
D
102
}
330
D
100
AcDbGroup
300

 70
     1
 71
     1
  0
GROUP
  5
1A80
102
{ACAD_REACTORS
330
D
102
}
330
D
100
AcDbGroup
300

 70
     1
 71
     1
  0
GROUP
  5
1961
102
{ACAD_REACTORS
330
D
102
}
330
D
100
AcDbGroup
300

 70
     1
 71
     1
  0
GROUP
  5
1963
102
{ACAD_REACTORS
330
D
102
}
330
D
100
AcDbGroup
300

 70
     1
 71
     1
  0
GROUP
  5
204F
102
{ACAD_REACTORS
330
D
102
}
330
D
100
AcDbGroup
300

 70
     1
 71
     1
  0
GROUP
  5
1FD8
102
{ACAD_REACTORS
330
D
102
}
330
D
100
AcDbGroup
300

 70
     1
 71
     1
  0
GROUP
  5
1969
102
{ACAD_REACTORS
330
D
102
}
330
D
100
AcDbGroup
300

 70
     1
 71
     1
  0
GROUP
  5
12C8
102
{ACAD_REACTORS
330
D
102
}
330
D
100
AcDbGroup
300

 70
     1
 71
     1
  0
GROUP
  5
196A
102
{ACAD_REACTORS
330
D
102
}
330
D
100
AcDbGroup
300

 70
     1
 71
     1
  0
GROUP
  5
100E
102
{ACAD_REACTORS
330
D
102
}
330
D
100
AcDbGroup
300

 70
     1
 71
     1
  0
GROUP
  5
199E
102
{ACAD_REACTORS
330
D
102
}
330
D
100
AcDbGroup
300

 70
     1
 71
     1
  0
GROUP
  5
38B
102
{ACAD_REACTORS
330
D
102
}
330
D
100
AcDbGroup
300

 70
     1
 71
     1
  0
GROUP
  5
46A
102
{ACAD_REACTORS
330
D
102
}
330
D
100
AcDbGroup
300

 70
     1
 71
     1
  0
GROUP
  5
19C5
102
{ACAD_REACTORS
330
D
102
}
330
D
100
AcDbGroup
300

 70
     1
 71
     1
  0
GROUP
  5
35D
102
{ACAD_REACTORS
330
D
102
}
330
D
100
AcDbGroup
300

 70
     1
 71
     1
  0
GROUP
  5
19C6
102
{ACAD_REACTORS
330
D
102
}
330
D
100
AcDbGroup
300

 70
     1
 71
     1
  0
GROUP
  5
19C7
102
{ACAD_REACTORS
330
D
102
}
330
D
100
AcDbGroup
300

 70
     1
 71
     1
  0
GROUP
  5
236B
102
{ACAD_REACTORS
330
D
102
}
330
D
100
AcDbGroup
300

 70
     1
 71
     1
  0
GROUP
  5
250C
102
{ACAD_REACTORS
330
D
102
}
330
D
100
AcDbGroup
300

 70
     1
 71
     1
340
23E1
340
23E0
  0
GROUP
  5
390
102
{ACAD_REACTORS
330
D
102
}
330
D
100
AcDbGroup
300

 70
     1
 71
     1
  0
GROUP
  5
250D
102
{ACAD_REACTORS
330
D
102
}
330
D
100
AcDbGroup
300

 70
     1
 71
     1
340
23AC
340
239F
  0
GROUP
  5
1A81
102
{ACAD_REACTORS
330
D
102
}
330
D
100
AcDbGroup
300

 70
     1
 71
     1
  0
GROUP
  5
2057
102
{ACAD_REACTORS
330
D
102
}
330
D
100
AcDbGroup
300

 70
     1
 71
     1
  0
GROUP
  5
1A82
102
{ACAD_REACTORS
330
D
102
}
330
D
100
AcDbGroup
300

 70
     1
 71
     1
  0
GROUP
  5
35F
102
{ACAD_REACTORS
330
D
102
}
330
D
100
AcDbGroup
300

 70
     1
 71
     1
  0
GROUP
  5
1A83
102
{ACAD_REACTORS
330
D
102
}
330
D
100
AcDbGroup
300

 70
     1
 71
     1
  0
GROUP
  5
D45
102
{ACAD_REACTORS
330
D
102
}
330
D
100
AcDbGroup
300

 70
     1
 71
     1
  0
GROUP
  5
2012
102
{ACAD_REACTORS
330
D
102
}
330
D
100
AcDbGroup
300

 70
     1
 71
     1
  0
GROUP
  5
1A84
102
{ACAD_REACTORS
330
D
102
}
330
D
100
AcDbGroup
300

 70
     1
 71
     1
  0
GROUP
  5
ED1
102
{ACAD_REACTORS
330
D
102
}
330
D
100
AcDbGroup
300

 70
     1
 71
     1
  0
GROUP
  5
1A85
102
{ACAD_REACTORS
330
D
102
}
330
D
100
AcDbGroup
300

 70
     1
 71
     1
  0
GROUP
  5
366
102
{ACAD_REACTORS
330
D
102
}
330
D
100
AcDbGroup
300

 70
     1
 71
     1
  0
GROUP
  5
203B
102
{ACAD_REACTORS
330
D
102
}
330
D
100
AcDbGroup
300

 70
     1
 71
     1
  0
GROUP
  5
1A86
102
{ACAD_REACTORS
330
D
102
}
330
D
100
AcDbGroup
300

 70
     1
 71
     1
  0
GROUP
  5
100F
102
{ACAD_REACTORS
330
D
102
}
330
D
100
AcDbGroup
300

 70
     1
 71
     1
  0
GROUP
  5
2290
102
{ACAD_REACTORS
330
D
102
}
330
D
100
AcDbGroup
300

 70
     1
 71
     1
  0
GROUP
  5
3EB
102
{ACAD_REACTORS
330
D
102
}
330
D
100
AcDbGroup
300

 70
     1
 71
     1
  0
GROUP
  5
2053
102
{ACAD_REACTORS
330
D
102
}
330
D
100
AcDbGroup
300

 70
     1
 71
     1
  0
GROUP
  5
20EC
102
{ACAD_REACTORS
330
D
102
}
330
D
100
AcDbGroup
300

 70
     1
 71
     1
  0
GROUP
  5
216C
102
{ACAD_REACTORS
330
D
102
}
330
D
100
AcDbGroup
300

 70
     1
 71
     1
  0
GROUP
  5
2083
102
{ACAD_REACTORS
330
D
102
}
330
D
100
AcDbGroup
300

 70
     1
 71
     1
  0
GROUP
  5
2190
102
{ACAD_REACTORS
330
D
102
}
330
D
100
AcDbGroup
300

 70
     1
 71
     1
  0
GROUP
  5
2193
102
{ACAD_REACTORS
330
D
102
}
330
D
100
AcDbGroup
300

 70
     1
 71
     1
  0
GROUP
  5
2196
102
{ACAD_REACTORS
330
D
102
}
330
D
100
AcDbGroup
300

 70
     1
 71
     1
  0
GROUP
  5
205B
102
{ACAD_REACTORS
330
D
102
}
330
D
100
AcDbGroup
300

 70
     1
 71
     1
  0
GROUP
  5
2199
102
{ACAD_REACTORS
330
D
102
}
330
D
100
AcDbGroup
300

 70
     1
 71
     1
  0
GROUP
  5
219C
102
{ACAD_REACTORS
330
D
102
}
330
D
100
AcDbGroup
300

 70
     1
 71
     1
  0
GROUP
  5
219F
102
{ACAD_REACTORS
330
D
102
}
330
D
100
AcDbGroup
300

 70
     1
 71
     1
  0
GROUP
  5
124C
102
{ACAD_REACTORS
330
D
102
}
330
D
100
AcDbGroup
300

 70
     1
 71
     1
  0
GROUP
  5
2087
102
{ACAD_REACTORS
330
D
102
}
330
D
100
AcDbGroup
300

 70
     1
 71
     1
  0
GROUP
  5
21A2
102
{ACAD_REACTORS
330
D
102
}
330
D
100
AcDbGroup
300

 70
     1
 71
     1
  0
GROUP
  5
21A5
102
{ACAD_REACTORS
330
D
102
}
330
D
100
AcDbGroup
300

 70
     1
 71
     1
  0
GROUP
  5
21A8
102
{ACAD_REACTORS
330
D
102
}
330
D
100
AcDbGroup
300

 70
     1
 71
     1
  0
GROUP
  5
21AB
102
{ACAD_REACTORS
330
D
102
}
330
D
100
AcDbGroup
300

 70
     1
 71
     1
  0
GROUP
  5
21AE
102
{ACAD_REACTORS
330
D
102
}
330
D
100
AcDbGroup
300

 70
     1
 71
     1
  0
GROUP
  5
208B
102
{ACAD_REACTORS
330
D
102
}
330
D
100
AcDbGroup
300

 70
     1
 71
     1
  0
GROUP
  5
1088
102
{ACAD_REACTORS
330
D
102
}
330
D
100
AcDbGroup
300

 70
     1
 71
     1
  0
GROUP
  5
36A
102
{ACAD_REACTORS
330
D
102
}
330
D
100
AcDbGroup
300

 70
     1
 71
     1
  0
GROUP
  5
208F
102
{ACAD_REACTORS
330
D
102
}
330
D
100
AcDbGroup
300

 70
     1
 71
     1
  0
GROUP
  5
1A7C
102
{ACAD_REACTORS
330
D
102
}
330
D
100
AcDbGroup
300

 70
     1
 71
     1
  0
GROUP
  5
2093
102
{ACAD_REACTORS
330
D
102
}
330
D
100
AcDbGroup
300

 70
     1
 71
     1
  0
GROUP
  5
2097
102
{ACAD_REACTORS
330
D
102
}
330
D
100
AcDbGroup
300

 70
     1
 71
     1
  0
GROUP
  5
209B
102
{ACAD_REACTORS
330
D
102
}
330
D
100
AcDbGroup
300

 70
     1
 71
     1
  0
GROUP
  5
309
102
{ACAD_REACTORS
330
D
102
}
330
D
100
AcDbGroup
300

 70
     1
 71
     1
  0
GROUP
  5
209F
102
{ACAD_REACTORS
330
D
102
}
330
D
100
AcDbGroup
300

 70
     1
 71
     1
  0
GROUP
  5
20A3
102
{ACAD_REACTORS
330
D
102
}
330
D
100
AcDbGroup
300

 70
     1
 71
     1
  0
GROUP
  5
20A7
102
{ACAD_REACTORS
330
D
102
}
330
D
100
AcDbGroup
300

 70
     1
 71
     1
  0
GROUP
  5
D40
102
{ACAD_REACTORS
330
D
102
}
330
D
100
AcDbGroup
300

 70
     1
 71
     1
  0
GROUP
  5
127A
102
{ACAD_REACTORS
330
D
102
}
330
D
100
AcDbGroup
300

 70
     1
 71
     1
  0
GROUP
  5
D3E
102
{ACAD_REACTORS
330
D
102
}
330
D
100
AcDbGroup
300

 70
     1
 71
     1
  0
GROUP
  5
1A7D
102
{ACAD_REACTORS
330
D
102
}
330
D
100
AcDbGroup
300

 70
     1
 71
     1
  0
GROUP
  5
15E1
102
{ACAD_REACTORS
330
D
102
}
330
D
100
AcDbGroup
300

 70
     1
 71
     1
  0
GROUP
  5
1236
102
{ACAD_REACTORS
330
D
102
}
330
D
100
AcDbGroup
300

 70
     1
 71
     1
  0
GROUP
  5
1686
102
{ACAD_REACTORS
330
D
102
}
330
D
100
AcDbGroup
300

 70
     1
 71
     1
  0
GROUP
  5
7A4
102
{ACAD_REACTORS
330
D
102
}
330
D
100
AcDbGroup
300

 70
     1
 71
     1
  0
GROUP
  5
203F
102
{ACAD_REACTORS
330
D
102
}
330
D
100
AcDbGroup
300

 70
     1
 71
     1
  0
GROUP
  5
D46
102
{ACAD_REACTORS
330
D
102
}
330
D
100
AcDbGroup
300

 70
     1
 71
     1
  0
GROUP
  5
151A
102
{ACAD_REACTORS
330
D
102
}
330
D
100
AcDbGroup
300

 70
     1
 71
     1
  0
GROUP
  5
169E
102
{ACAD_REACTORS
330
D
102
}
330
D
100
AcDbGroup
300

 70
     1
 71
     1
  0
GROUP
  5
D44
102
{ACAD_REACTORS
330
D
102
}
330
D
100
AcDbGroup
300

 70
     1
 71
     1
  0
GROUP
  5
1F54
102
{ACAD_REACTORS
330
D
102
}
330
D
100
AcDbGroup
300

 70
     1
 71
     1
  0
GROUP
  5
12E0
102
{ACAD_REACTORS
330
D
102
}
330
D
100
AcDbGroup
300

 70
     1
 71
     1
  0
GROUP
  5
16B3
102
{ACAD_REACTORS
330
D
102
}
330
D
100
AcDbGroup
300

 70
     1
 71
     1
  0
GROUP
  5
12C7
102
{ACAD_REACTORS
330
D
102
}
330
D
100
AcDbGroup
300

 70
     1
 71
     1
  0
GROUP
  5
16F0
102
{ACAD_REACTORS
330
D
102
}
330
D
100
AcDbGroup
300

 70
     1
 71
     1
  0
GROUP
  5
16F1
102
{ACAD_REACTORS
330
D
102
}
330
D
100
AcDbGroup
300

 70
     1
 71
     1
  0
GROUP
  5
16FC
102
{ACAD_REACTORS
330
D
102
}
330
D
100
AcDbGroup
300

 70
     1
 71
     1
  0
GROUP
  5
D41
102
{ACAD_REACTORS
330
D
102
}
330
D
100
AcDbGroup
300

 70
     1
 71
     1
  0
GROUP
  5
2043
102
{ACAD_REACTORS
330
D
102
}
330
D
100
AcDbGroup
300

 70
     1
 71
     1
  0
GROUP
  5
ED0
102
{ACAD_REACTORS
330
D
102
}
330
D
100
AcDbGroup
300

 70
     1
 71
     1
  0
GROUP
  5
30C
102
{ACAD_REACTORS
330
D
102
}
330
D
100
AcDbGroup
300

 70
     1
 71
     1
  0
GROUP
  5
151B
102
{ACAD_REACTORS
330
D
102
}
330
D
100
AcDbGroup
300

 70
     1
 71
     1
  0
GROUP
  5
1A7E
102
{ACAD_REACTORS
330
D
102
}
330
D
100
AcDbGroup
300

 70
     1
 71
     1
  0
GROUP
  5
1442
102
{ACAD_REACTORS
330
D
102
}
330
D
100
AcDbGroup
300

 70
     1
 71
     1
  0
GROUP
  5
1700
102
{ACAD_REACTORS
330
D
102
}
330
D
100
AcDbGroup
300

 70
     1
 71
     1
  0
GROUP
  5
D47
102
{ACAD_REACTORS
330
D
102
}
330
D
100
AcDbGroup
300

 70
     1
 71
     1
  0
GROUP
  5
30A
102
{ACAD_REACTORS
330
D
102
}
330
D
100
AcDbGroup
300

 70
     1
 71
     1
  0
GROUP
  5
1716
102
{ACAD_REACTORS
330
D
102
}
330
D
100
AcDbGroup
300

 70
     1
 71
     1
  0
GROUP
  5
30D
102
{ACAD_REACTORS
330
D
102
}
330
D
100
AcDbGroup
300

 70
     1
 71
     1
  0
GROUP
  5
30E
102
{ACAD_REACTORS
330
D
102
}
330
D
100
AcDbGroup
300

 70
     1
 71
     1
  0
GROUP
  5
D3D
102
{ACAD_REACTORS
330
D
102
}
330
D
100
AcDbGroup
300

 70
     1
 71
     1
  0
GROUP
  5
2047
102
{ACAD_REACTORS
330
D
102
}
330
D
100
AcDbGroup
300

 70
     1
 71
     1
  0
GROUP
  5
D42
102
{ACAD_REACTORS
330
D
102
}
330
D
100
AcDbGroup
300

 70
     1
 71
     1
  0
GROUP
  5
1A7F
102
{ACAD_REACTORS
330
D
102
}
330
D
100
AcDbGroup
300

 70
     1
 71
     1
  0
GROUP
  5
30B
102
{ACAD_REACTORS
330
D
102
}
330
D
100
AcDbGroup
300

 70
     1
 71
     1
  0
GROUP
  5
1FB3
102
{ACAD_REACTORS
330
D
102
}
330
D
100
AcDbGroup
300

 70
     1
 71
     1
  0
GROUP
  5
D43
102
{ACAD_REACTORS
330
D
102
}
330
D
100
AcDbGroup
300

 70
     1
 71
     1
  0
GROUP
  5
10AE
102
{ACAD_REACTORS
330
D
102
}
330
D
100
AcDbGroup
300

 70
     1
 71
     1
  0
GROUP
  5
124B
102
{ACAD_REACTORS
330
D
102
}
330
D
100
AcDbGroup
300

 70
     1
 71
     1
  0
GROUP
  5
18DD
102
{ACAD_REACTORS
330
D
102
}
330
D
100
AcDbGroup
300

 70
     1
 71
     1
  0
GROUP
  5
361
102
{ACAD_REACTORS
330
D
102
}
330
D
100
AcDbGroup
300

 70
     1
 71
     1
  0
GROUP
  5
100D
102
{ACAD_REACTORS
330
D
102
}
330
D
100
AcDbGroup
300

 70
     1
 71
     1
  0
GROUP
  5
18DF
102
{ACAD_REACTORS
330
D
102
}
330
D
100
AcDbGroup
300

 70
     1
 71
     1
  0
GROUP
  5
D3F
102
{ACAD_REACTORS
330
D
102
}
330
D
100
AcDbGroup
300

 70
     1
 71
     1
  0
LAYOUT
  5
59
102
{ACAD_REACTORS
330
1A
102
}
330
1A
100
AcDbPlotSettings
  1

  2
None
  4

  6

 40
0.0
 41
0.0
 42
0.0
 43
0.0
 44
0.0
 45
0.0
 46
0.0
 47
0.0
 48
0.0
 49
0.0
140
0.0
141
0.0
142
1.0
143
1.0
 70
   688
 72
     0
 73
     0
 74
     5
  7

 75
    16
147
1.0
148
0.0
149
0.0
100
AcDbLayout
  1
Layout1
 70
     1
 71
     1
 10
0.0
 20
0.0
 11
12.0
 21
9.0
 12
0.0
 22
0.0
 32
0.0
 14
0.0
 24
0.0
 34
0.0
 15
0.0
 25
0.0
 35
0.0
146
0.0
 13
0.0
 23
0.0
 33
0.0
 16
1.0
 26
0.0
 36
0.0
 17
0.0
 27
1.0
 37
0.0
 76
     0
330
58
  0
LAYOUT
  5
5E
102
{ACAD_REACTORS
330
1A
102
}
330
1A
100
AcDbPlotSettings
  1

  2
None
  4

  6

 40
0.0
 41
0.0
 42
0.0
 43
0.0
 44
0.0
 45
0.0
 46
0.0
 47
0.0
 48
0.0
 49
0.0
140
0.0
141
0.0
142
1.0
143
1.0
 70
   688
 72
     0
 73
     0
 74
     5
  7

 75
    16
147
1.0
148
0.0
149
0.0
100
AcDbLayout
  1
Layout2
 70
     1
 71
     2
 10
0.0
 20
0.0
 11
12.0
 21
9.0
 12
0.0
 22
0.0
 32
0.0
 14
0.0
 24
0.0
 34
0.0
 15
0.0
 25
0.0
 35
0.0
146
0.0
 13
0.0
 23
0.0
 33
0.0
 16
1.0
 26
0.0
 36
0.0
 17
0.0
 27
1.0
 37
0.0
 76
     0
330
5D
  0
LAYOUT
  5
22
102
{ACAD_REACTORS
330
1A
102
}
330
1A
100
AcDbPlotSettings
  1

  2
CutePDF Writer
  4
Letter
  6

 40
3.174999952316284
 41
3.174999952316284
 42
3.175003051757812
 43
3.17498779296875
 44
215.8999938964843
 45
279.3999938964843
 46
0.0
 47
0.0
 48
0.0
 49
0.0
140
0.0
141
0.0
142
1.0
143
2.85082439374023
 70
 11952
 72
     0
 73
     1
 74
     0
  7

 75
     0
147
0.350775727258324
148
-1203.257008589371
149
773.074951146109
100
AcDbLayout
  1
Model
 70
     1
 71
     0
 10
0.0
 20
0.0
 11
12.0
 21
9.0
 12
0.0
 22
0.0
 32
0.0
 14
0.0
 24
0.0
 34
0.0
 15
0.0
 25
0.0
 35
0.0
146
0.0
 13
0.0
 23
0.0
 33
0.0
 16
1.0
 26
0.0
 36
0.0
 17
0.0
 27
1.0
 37
0.0
 76
     0
330
1F
  0
MLINESTYLE
  5
18
102
{ACAD_REACTORS
330
17
102
}
330
17
100
AcDbMlineStyle
  2
STANDARD
 70
     0
  3

 62
   256
 51
90.0
 52
90.0
 71
     2
 49
0.5
 62
   256
  6
BYLAYER
 49
-0.5
 62
   256
  6
BYLAYER
  0
ACDBPLACEHOLDER
  5
F
102
{ACAD_REACTORS
330
E
102
}
330
E
  0
DICTIONARYVAR
  5
67
102
{ACAD_REACTORS
330
66
102
}
330
66
100
DictionaryVariables
280
     0
  1
2
  0
DICTIONARYVAR
  5
6B
102
{ACAD_REACTORS
330
66
102
}
330
66
100
DictionaryVariables
280
     0
  1
1
  0
DICTIONARYVAR
  5
1F33
102
{ACAD_REACTORS
330
66
102
}
330
66
100
DictionaryVariables
280
     0
  1
127
  0
ENDSEC
  0
EOF
